<svg aria-hidden="true" style="position: absolute; width: 0; height: 0; overflow: hidden;" version="1.1" xmlns="http://www.w3.org/2000/svg" xmlns:xlink="http://www.w3.org/1999/xlink">
<defs>
<symbol id="icon-Button" viewBox="0 0 16 16">
<path stroke-linejoin="round" stroke-linecap="round" stroke-miterlimit="4" stroke-width="1.2" d="M12.667 2.667h-9.333c-0.736 0-1.333 0.597-1.333 1.333v9.333c0 0.736 0.597 1.333 1.333 1.333h9.333c0.736 0 1.333-0.597 1.333-1.333v-9.333c0-0.736-0.597-1.333-1.333-1.333z"></path>
<path stroke-linejoin="round" stroke-linecap="round" stroke-miterlimit="4" stroke-width="1.2" d="M10.667 1.333v2.667"></path>
<path stroke-linejoin="round" stroke-linecap="round" stroke-miterlimit="4" stroke-width="1.2" d="M5.333 1.333v2.667"></path>
<path stroke-linejoin="round" stroke-linecap="round" stroke-miterlimit="4" stroke-width="1.2" d="M2 6.667h12"></path>
</symbol>
<symbol id="icon-ac" viewBox="0 0 20 16">
<path d="M9.69 0c-0.938 0-1.847 0.32-2.573 0.906s-1.223 1.401-1.407 2.306l-0.072 0.359c-0.019 0.080-0.022 0.164-0.008 0.245s0.045 0.159 0.090 0.229c0.045 0.070 0.104 0.129 0.174 0.176s0.147 0.079 0.23 0.095c0.082 0.016 0.167 0.016 0.249-0.001s0.16-0.050 0.229-0.097c0.069-0.047 0.128-0.107 0.173-0.177s0.075-0.148 0.089-0.229l0.074-0.358c0.139-0.672 0.525-1.269 1.085-1.676s1.254-0.595 1.946-0.527c0.693 0.068 1.335 0.386 1.803 0.893s0.728 1.168 0.729 1.853c0 0.735-0.296 1.439-0.824 1.959s-1.243 0.812-1.989 0.812h-9.063c-0.166 0-0.325 0.065-0.442 0.18s-0.183 0.272-0.183 0.435c0 0.163 0.066 0.32 0.183 0.435s0.276 0.18 0.442 0.18h9.063c1.060-0.026 2.068-0.458 2.809-1.205s1.155-1.75 1.156-2.794-0.414-2.047-1.154-2.794c-0.74-0.748-1.748-1.181-2.808-1.207zM16.875 5.538c-0.829 0-1.624 0.324-2.21 0.901s-0.915 1.36-0.915 2.176c0 0.163 0.066 0.32 0.183 0.435s0.276 0.18 0.442 0.18 0.325-0.065 0.442-0.18c0.117-0.115 0.183-0.272 0.183-0.435 0-0.365 0.11-0.722 0.316-1.026s0.499-0.54 0.842-0.68c0.343-0.14 0.72-0.176 1.083-0.105s0.698 0.247 0.96 0.505c0.262 0.258 0.441 0.587 0.513 0.945s0.035 0.729-0.107 1.067-0.382 0.626-0.691 0.829c-0.308 0.203-0.671 0.311-1.042 0.311h-16.25c-0.166 0-0.325 0.065-0.442 0.18s-0.183 0.272-0.183 0.435c0 0.163 0.066 0.32 0.183 0.435s0.276 0.18 0.442 0.18h12.188c0.414 0.001 0.812 0.164 1.104 0.453s0.456 0.681 0.456 1.089c-0.001 0.408-0.166 0.799-0.46 1.087s-0.691 0.449-1.106 0.448c-0.373 0-0.735-0.13-1.020-0.367s-0.476-0.566-0.539-0.928l-0.006-0.037c-0.011-0.082-0.039-0.16-0.082-0.231s-0.099-0.133-0.167-0.181-0.144-0.084-0.225-0.103c-0.081-0.019-0.166-0.022-0.248-0.009s-0.162 0.043-0.232 0.087c-0.071 0.044-0.132 0.102-0.179 0.169s-0.081 0.144-0.098 0.225c-0.017 0.081-0.017 0.164-0.001 0.245l0.006 0.037c0.111 0.65 0.453 1.24 0.963 1.665s1.159 0.659 1.828 0.659c0.747 0 1.463-0.291 1.991-0.81s0.826-1.224 0.827-1.959c0-0.57-0.175-1.099-0.474-1.538h1.724c0.829 0 1.624-0.324 2.21-0.901s0.915-1.36 0.915-2.176-0.329-1.599-0.915-2.176c-0.586-0.577-1.381-0.901-2.21-0.901z"></path>
<path d="M9.69 0l0.124-4.998-0.062-0.002-0.062 0 0.001 5zM5.71 3.212l-4.9-0.997-0.002 0.008 4.901 0.989zM5.638 3.572l4.862 1.166 0.021-0.088 0.018-0.089-4.901-0.989zM6.862 3.813l-4.897-1.008-0.019 0.092-0.015 0.093 4.932 0.824zM6.936 3.455v0zM12.5 3.999h5v-0.012l-5 0.012zM9.688 6.769v5h0.002l-0.002-5zM0 7.385v0zM9.688 8v5h0.060l0.060-0.002-0.121-4.998zM15 8.615v0zM0 11.077v0zM12.813 11.692l0.010-5h-0.010v5zM12.806 14.769l0.010-5-0.013 0 0.004 5zM11.248 13.475l-4.93 0.835 0.001 0.008 0.001 0.008 4.927-0.851zM11.241 13.438l-4.953 0.682 0.011 0.077 0.013 0.076 4.93-0.835zM10.009 13.639l4.93-0.835-0.013-0.075-0.015-0.074-4.902 0.983zM10.015 13.676l-4.93 0.835 0.001 0.008 4.928-0.843zM12.806 16l0.002-5h-0.003l0.001 5zM15.625 13.231l5 0.009v-0.009h-5zM15.151 11.692v-5h-9.446l5.311 7.811 4.135-2.811zM9.689-5c-2.073 0-4.092 0.707-5.712 2.015l6.281 7.782c-0.169 0.137-0.37 0.203-0.566 0.203l-0.002-10zM3.977-2.985c-1.622 1.309-2.748 3.144-3.166 5.2l9.799 1.994c-0.050 0.245-0.181 0.45-0.352 0.588l-6.281-7.782zM0.809 2.224l-0.073 0.359 9.803 1.977 0.072-0.359-9.803-1.977zM0.775 2.406c-0.178 0.743-0.203 1.514-0.072 2.267l9.852-1.712c0.103 0.59 0.083 1.195-0.056 1.777l-9.724-2.331zM0.704 4.673c0.131 0.753 0.414 1.468 0.828 2.104l8.376-5.462c0.324 0.496 0.545 1.056 0.648 1.646l-9.852 1.712zM1.532 6.777c0.414 0.635 0.951 1.177 1.574 1.595l5.576-8.301c0.484 0.325 0.903 0.747 1.226 1.243l-8.376 5.462zM3.106 8.372c0.623 0.418 1.321 0.706 2.052 0.85l1.932-9.812c0.566 0.112 1.108 0.335 1.592 0.66l-5.576 8.301zM5.157 9.222c0.731 0.144 1.483 0.142 2.213-0.007l-1.995-9.799c0.566-0.115 1.148-0.117 1.714-0.005l-1.932 9.812zM7.37 9.215c0.73-0.149 1.426-0.441 2.046-0.864l-5.63-8.265c0.482-0.329 1.023-0.555 1.588-0.671l1.995 9.799zM9.416 8.352c0.62-0.423 1.153-0.968 1.564-1.606l-8.412-5.407c0.32-0.499 0.736-0.923 1.219-1.252l5.63 8.265zM10.98 6.746c0.41-0.638 0.688-1.356 0.814-2.109l-9.863-1.647c0.099-0.591 0.317-1.152 0.637-1.651l8.412 5.407zM11.76 4.821l0.074-0.358-9.794-2.017-0.074 0.358 9.795 2.017zM11.833 4.465c-0.116 0.561-0.435 1.042-0.873 1.359l-5.878-8.090c-1.557 1.131-2.65 2.806-3.043 4.71l9.794 2.021zM10.96 5.824c-0.435 0.316-0.962 0.455-1.479 0.404l0.973-9.953c-1.903-0.186-3.816 0.328-5.372 1.458l5.878 8.090zM9.481 6.229c-0.518-0.051-1.014-0.29-1.387-0.693l7.352-6.779c-1.308-1.418-3.089-2.294-4.992-2.48l-0.973 9.953zM8.095 5.535c-0.374-0.406-0.593-0.948-0.595-1.524l10-0.025c-0.005-1.947-0.744-3.809-2.053-5.23l-7.352 6.779zM7.5 3.999c0-0.616 0.249-1.192 0.668-1.603l7.018 7.124c1.473-1.451 2.315-3.435 2.315-5.521h-10zM8.168 2.395c0.416-0.409 0.963-0.626 1.518-0.626l0.004 10c2.047-0.001 4.025-0.801 5.495-2.25l-7.018-7.124zM9.688 1.769h-9.063v10h9.063v-10zM0.625 1.769c-1.467 0-2.889 0.573-3.95 1.617l7.016 7.126c-0.826 0.813-1.931 1.257-3.066 1.257v-10zM-3.325 3.387c-1.063 1.047-1.675 2.483-1.675 3.998h10c0 1.188-0.48 2.312-1.309 3.128l-7.016-7.126zM-5 7.385c0 1.515 0.612 2.951 1.675 3.998l7.016-7.126c0.829 0.816 1.309 1.94 1.309 3.128h-10zM-3.325 11.383c1.061 1.044 2.483 1.617 3.95 1.617v-10c1.136 0 2.24 0.443 3.066 1.257l-7.016 7.126zM0.625 13h9.063v-10h-9.063v10zM9.808 12.998c2.34-0.056 4.581-1.011 6.239-2.684l-7.102-7.040c0.177-0.178 0.402-0.268 0.622-0.273l0.241 9.997zM16.047 10.315c1.661-1.675 2.604-3.939 2.605-6.312l-10-0.003c0-0.285 0.114-0.544 0.293-0.725l7.102 7.040zM18.652 4.003c0.001-2.373-0.941-4.638-2.601-6.314l-7.106 7.036c-0.179-0.181-0.293-0.44-0.293-0.725l10 0.003zM16.051-2.311c-1.657-1.674-3.897-2.63-6.237-2.687l-0.247 9.997c-0.22-0.005-0.445-0.095-0.622-0.274l7.106-7.036zM16.875 0.538c-2.13 0-4.188 0.832-5.718 2.338l7.016 7.126c-0.357 0.352-0.826 0.536-1.298 0.536v-10zM11.157 2.877c-1.532 1.509-2.407 3.571-2.407 5.739h10c0 0.535-0.217 1.033-0.577 1.387l-7.016-7.126zM8.75 8.615c0 1.515 0.612 2.951 1.675 3.998l7.016-7.126c0.829 0.816 1.309 1.94 1.309 3.128h-10zM10.425 12.613c1.061 1.044 2.483 1.617 3.95 1.617v-10c1.136 0 2.24 0.443 3.066 1.257l-7.016 7.126zM14.375 14.231c1.467 0 2.889-0.573 3.95-1.617l-7.016-7.126c0.826-0.814 1.931-1.257 3.066-1.257v10zM18.325 12.613c1.063-1.047 1.675-2.483 1.675-3.998h-10c0-1.188 0.48-2.312 1.309-3.128l7.016 7.126zM20 8.615c0 0.641-0.194 1.261-0.547 1.782l-8.275-5.615c-0.765 1.128-1.179 2.462-1.179 3.833h10zM19.453 10.397c-0.353 0.52-0.846 0.913-1.408 1.142l-3.776-9.259c-1.247 0.509-2.326 1.375-3.091 2.502l8.275 5.615zM18.046 11.54c-0.561 0.229-1.175 0.288-1.766 0.172l1.922-9.814c-1.319-0.258-2.686-0.126-3.933 0.382l3.776 9.259zM16.28 11.711c-0.591-0.116-1.145-0.404-1.587-0.839l7.016-7.126c-0.966-0.951-2.188-1.591-3.507-1.849l-1.922 9.814zM14.693 10.873c-0.443-0.436-0.753-1.001-0.88-1.627l9.802-1.98c-0.271-1.343-0.939-2.566-1.906-3.518l-7.016 7.126zM13.813 9.245c-0.127-0.627-0.061-1.276 0.185-1.862l9.218 3.878c0.53-1.261 0.67-2.652 0.399-3.996l-9.802 1.98zM13.998 7.383c0.246-0.585 0.658-1.072 1.17-1.41l5.496 8.354c1.129-0.743 2.021-1.807 2.551-3.067l-9.218-3.878zM15.169 5.973c0.512-0.337 1.105-0.512 1.706-0.512v10c1.343 0 2.661-0.392 3.79-1.134l-5.496-8.354zM16.875 5.462h-16.25v10h16.25v-10zM0.625 5.462c-1.467 0-2.889 0.573-3.95 1.617l7.016 7.126c-0.826 0.813-1.931 1.257-3.066 1.257v-10zM-3.325 7.079c-1.063 1.047-1.675 2.483-1.675 3.998h10c0 1.188-0.48 2.312-1.309 3.128l-7.016-7.126zM-5 11.077c0 1.514 0.612 2.951 1.675 3.998l7.016-7.126c0.829 0.816 1.309 1.94 1.309 3.128h-10zM-3.325 15.075c1.061 1.044 2.483 1.617 3.95 1.617v-10c1.136 0 2.24 0.443 3.066 1.257l-7.016 7.126zM0.625 16.692h12.188v-10h-12.188v10zM12.803 16.692c-0.887-0.002-1.752-0.35-2.401-0.991l7.030-7.112c-1.234-1.22-2.894-1.894-4.609-1.897l-0.020 10zM10.401 15.701c-0.652-0.644-1.031-1.534-1.029-2.477l10 0.020c0.003-1.759-0.704-3.432-1.94-4.655l-7.030 7.112zM9.372 13.224c0.002-0.943 0.385-1.831 1.039-2.473l7.002 7.14c1.241-1.217 1.955-2.887 1.959-4.647l-10-0.020zM10.411 10.751c0.652-0.639 1.518-0.983 2.405-0.982l-0.020 10c1.716 0.003 3.378-0.664 4.617-1.879l-7.002-7.14zM12.803 9.769c0.787-0.001 1.559 0.273 2.178 0.787l-6.39 7.692c1.19 0.989 2.685 1.521 4.218 1.52l-0.007-10zM14.981 10.556c0.621 0.516 1.052 1.245 1.193 2.067l-9.854 1.703c0.267 1.546 1.079 2.933 2.271 3.923l6.39-7.692zM16.177 12.64l-0.006-0.037-9.86 1.669 0.006 0.037 9.86-1.669zM16.195 12.756c-0.104-0.755-0.36-1.479-0.751-2.128l-8.568 5.156c-0.305-0.507-0.506-1.073-0.588-1.665l9.907-1.363zM15.444 10.628c-0.39-0.649-0.906-1.208-1.512-1.649l-5.877 8.090c-0.472-0.343-0.874-0.779-1.179-1.286l8.568-5.156zM13.932 8.98c-0.606-0.44-1.292-0.753-2.015-0.924l-2.298 9.732c-0.561-0.132-1.093-0.375-1.564-0.718l5.877-8.090zM11.917 8.056c-0.723-0.171-1.473-0.197-2.206-0.077l1.616 9.869c-0.568 0.093-1.149 0.073-1.709-0.059l2.298-9.732zM9.711 7.979c-0.733 0.12-1.437 0.384-2.072 0.78l5.295 8.483c-0.493 0.308-1.040 0.513-1.608 0.606l-1.616-9.869zM7.64 8.759c-0.634 0.396-1.187 0.917-1.622 1.535l8.181 5.751c-0.339 0.483-0.77 0.888-1.263 1.196l-5.295-8.483zM6.018 10.294c-0.435 0.618-0.742 1.321-0.9 2.066l9.784 2.069c-0.123 0.584-0.364 1.133-0.704 1.616l-8.181-5.751zM5.118 12.36c-0.158 0.745-0.162 1.515-0.012 2.262l9.805-1.966c0.117 0.585 0.114 1.189-0.009 1.773l-9.784-2.069zM5.079 14.474l0.006 0.037 9.86-1.669-0.006-0.037-9.86 1.669zM5.087 14.519c0.314 1.835 1.275 3.485 2.693 4.665l6.398-7.685c0.396 0.329 0.674 0.799 0.766 1.335l-9.857 1.686zM7.779 19.184c1.416 1.179 3.198 1.816 5.028 1.816l-0.002-10c0.492-0 0.978 0.171 1.372 0.499l-6.398 7.685zM12.804 21c2.047 0.001 4.025-0.797 5.497-2.244l-7.008-7.133c0.415-0.408 0.961-0.623 1.515-0.623l-0.004 10zM18.302 18.756c1.475-1.449 2.32-3.431 2.323-5.517l-10-0.018c0.001-0.615 0.251-1.188 0.668-1.599l7.008 7.133zM20.625 13.231c0-1.61-0.498-3.113-1.339-4.35l-8.27 5.623c-0.243-0.358-0.392-0.802-0.392-1.273h10zM15.151 16.692h1.724v-10h-1.724v10zM16.875 16.692c2.13 0 4.188-0.832 5.718-2.338l-7.016-7.126c0.357-0.352 0.826-0.536 1.298-0.536v10zM22.593 14.354c1.532-1.508 2.407-3.571 2.407-5.739h-10c0-0.535 0.217-1.033 0.577-1.387l7.016 7.126zM25 8.615c0-2.167-0.875-4.23-2.407-5.739l-7.016 7.126c-0.36-0.354-0.577-0.852-0.577-1.387h10zM22.593 2.877c-1.529-1.506-3.588-2.338-5.718-2.338v10c-0.473 0-0.941-0.184-1.298-0.536l7.016-7.126z"></path>
</symbol>
<symbol id="icon-alcove" viewBox="0 0 23 16">
<path d="M1.304 0.9h6.205c0.052 0 0.102-0.020 0.139-0.056l0.596-0.582c0.173-0.169 0.404-0.262 0.649-0.262h9.408c0.438 0 0.845 0.212 1.088 0.568l1.128 1.65c0.16 0.234 0.175 0.534 0.039 0.782s-0.4 0.402-0.689 0.402h-4.849v0.478h2.483c0.658 0 1.251 0.382 1.509 0.972l1.454 3.325 1.274 0.497c0.68 0.265 1.12 0.899 1.12 1.613v3.079c0 0.459-0.383 0.833-0.854 0.833h-1.482c-0.172 1.019-1.082 1.8-2.175 1.8s-2.003-0.78-2.175-1.8h-8.102c-0.172 1.019-1.082 1.8-2.175 1.8s-2.003-0.78-2.175-1.8h-2.96c-0.419 0-0.759-0.332-0.759-0.74v-11.288c0-0.702 0.585-1.272 1.304-1.272zM18.346 15.297c0.819 0 1.484-0.65 1.484-1.448s-0.666-1.448-1.484-1.448c-0.819 0-1.484 0.65-1.484 1.448s0.666 1.448 1.484 1.448zM15.017 13.497h1.154c0.003-0.018 0.007-0.035 0.010-0.052 0.002-0.012 0.004-0.024 0.007-0.035 0.006-0.028 0.012-0.055 0.019-0.082 0.001-0.006 0.003-0.011 0.004-0.017 0.009-0.033 0.018-0.065 0.028-0.097 0.003-0.009 0.006-0.019 0.009-0.028 0.007-0.023 0.015-0.045 0.023-0.067 0.005-0.012 0.009-0.024 0.014-0.035 0.007-0.019 0.015-0.039 0.023-0.058 0.005-0.013 0.011-0.025 0.017-0.037 0.008-0.018 0.016-0.036 0.025-0.054 0.006-0.013 0.012-0.025 0.019-0.038 0.009-0.017 0.018-0.035 0.027-0.051 0.007-0.012 0.014-0.025 0.020-0.037 0.009-0.017 0.020-0.034 0.030-0.050 0.007-0.012 0.014-0.024 0.022-0.035 0.011-0.017 0.022-0.033 0.033-0.050 0.007-0.011 0.015-0.022 0.022-0.033 0.012-0.018 0.025-0.035 0.039-0.053 0.007-0.009 0.013-0.019 0.020-0.028 0.018-0.023 0.036-0.045 0.055-0.067 0.003-0.003 0.005-0.007 0.008-0.010 0.021-0.025 0.044-0.050 0.066-0.074 0.007-0.008 0.014-0.015 0.021-0.022 0.016-0.017 0.032-0.033 0.048-0.049 0.009-0.009 0.019-0.018 0.028-0.026 0.015-0.014 0.030-0.028 0.045-0.042 0.010-0.009 0.020-0.018 0.031-0.027 0.015-0.013 0.030-0.026 0.045-0.038l0.033-0.026c0.015-0.012 0.031-0.024 0.046-0.036 0.011-0.008 0.023-0.017 0.034-0.025 0.016-0.012 0.032-0.023 0.048-0.034 0.012-0.008 0.023-0.015 0.035-0.023 0.017-0.011 0.035-0.022 0.052-0.033 0.011-0.007 0.022-0.014 0.034-0.021 0.019-0.011 0.039-0.022 0.058-0.033 0.010-0.006 0.020-0.011 0.030-0.017 0.028-0.015 0.056-0.029 0.084-0.042 0.002-0.001 0.004-0.002 0.007-0.003 0.031-0.014 0.062-0.028 0.093-0.041 0.010-0.004 0.020-0.008 0.031-0.012 0.021-0.008 0.043-0.017 0.065-0.025 0.012-0.004 0.025-0.008 0.037-0.013 0.020-0.007 0.040-0.013 0.060-0.020 0.014-0.004 0.027-0.008 0.041-0.012 0.020-0.006 0.039-0.011 0.059-0.016 0.014-0.004 0.028-0.007 0.043-0.011 0.020-0.005 0.039-0.009 0.059-0.013 0.014-0.003 0.029-0.006 0.043-0.009 0.020-0.004 0.040-0.007 0.061-0.010 0.014-0.003 0.029-0.005 0.043-0.007 0.021-0.003 0.042-0.006 0.064-0.008 0.014-0.001 0.027-0.003 0.041-0.005 0.024-0.002 0.048-0.004 0.071-0.005 0.012-0.001 0.023-0.002 0.035-0.002 0.036-0.002 0.072-0.003 0.108-0.003s0.072 0.001 0.108 0.003c0.012 0 0.023 0.001 0.035 0.002 0.024 0.001 0.048 0.003 0.071 0.005 0.014 0.001 0.028 0.003 0.041 0.005 0.022 0.003 0.043 0.005 0.064 0.008 0.015 0.002 0.029 0.004 0.043 0.007 0.020 0.003 0.041 0.007 0.061 0.010 0.015 0.003 0.029 0.006 0.044 0.009 0.020 0.004 0.039 0.008 0.059 0.013 0.014 0.003 0.029 0.007 0.043 0.011 0.020 0.005 0.039 0.011 0.059 0.016 0.014 0.004 0.027 0.008 0.041 0.012 0.020 0.006 0.040 0.013 0.060 0.020 0.012 0.005 0.025 0.008 0.037 0.013 0.022 0.008 0.043 0.017 0.065 0.025 0.010 0.004 0.020 0.008 0.031 0.012 0.031 0.013 0.062 0.027 0.093 0.041 0.002 0.001 0.004 0.002 0.007 0.003 0.028 0.014 0.056 0.028 0.084 0.042 0.010 0.005 0.020 0.011 0.030 0.017 0.020 0.011 0.039 0.021 0.058 0.033 0.012 0.007 0.023 0.014 0.034 0.021 0.017 0.011 0.035 0.021 0.052 0.033 0.012 0.008 0.023 0.015 0.035 0.023 0.016 0.011 0.033 0.022 0.048 0.034 0.011 0.008 0.023 0.017 0.034 0.025 0.016 0.012 0.031 0.024 0.046 0.036l0.033 0.026c0.015 0.013 0.030 0.025 0.045 0.038 0.010 0.009 0.021 0.018 0.031 0.027 0.015 0.014 0.030 0.028 0.045 0.042 0.009 0.009 0.019 0.017 0.028 0.026 0.016 0.016 0.032 0.033 0.048 0.049 0.007 0.007 0.014 0.014 0.021 0.022 0.022 0.024 0.045 0.049 0.066 0.074 0.003 0.003 0.005 0.007 0.008 0.010 0.018 0.022 0.037 0.044 0.054 0.067 0.007 0.009 0.014 0.018 0.020 0.028 0.013 0.017 0.026 0.035 0.039 0.053 0.007 0.011 0.015 0.022 0.022 0.033 0.011 0.017 0.022 0.033 0.033 0.050 0.007 0.012 0.014 0.024 0.022 0.035 0.010 0.017 0.020 0.033 0.030 0.050 0.007 0.012 0.014 0.025 0.020 0.037 0.009 0.017 0.018 0.034 0.027 0.051 0.007 0.013 0.013 0.025 0.019 0.038 0.009 0.018 0.017 0.036 0.025 0.054 0.006 0.012 0.011 0.025 0.017 0.037 0.008 0.019 0.016 0.039 0.023 0.058 0.005 0.012 0.009 0.024 0.014 0.035 0.008 0.022 0.016 0.045 0.023 0.067 0.003 0.010 0.007 0.019 0.010 0.028 0.010 0.032 0.020 0.064 0.028 0.097 0.002 0.006 0.003 0.011 0.004 0.017 0.007 0.027 0.014 0.055 0.019 0.082 0.003 0.012 0.005 0.024 0.007 0.035 0.003 0.017 0.007 0.035 0.010 0.052h1.482c0.074 0 0.133-0.058 0.133-0.13v-1.473h-0.562v-0.703h0.562v-0.903c0-0.426-0.262-0.803-0.667-0.961l-1.348-0.526h-5.104v4.696zM15.017 8.098h4.629l-1.299-2.97c-0.145-0.331-0.477-0.545-0.846-0.545h-2.483v3.515zM5.894 15.297c0.819 0 1.484-0.65 1.484-1.448s-0.666-1.448-1.484-1.448c-0.026 0-0.051 0.001-0.076 0.002-0.682 0.034-1.244 0.519-1.378 1.155-0.005 0.024-0.010 0.048-0.013 0.071-0.007 0.048-0.012 0.096-0.015 0.146-0.001 0.025-0.002 0.049-0.002 0.075 0 0.799 0.666 1.448 1.484 1.448zM0.721 11.192h0.562v0.703h-0.562v1.565c0 0.021 0.017 0.037 0.038 0.037h2.96c0.003-0.017 0.007-0.035 0.010-0.052 0.002-0.012 0.004-0.024 0.007-0.036 0.006-0.027 0.012-0.054 0.019-0.080 0.002-0.006 0.003-0.013 0.005-0.019 0.009-0.033 0.018-0.065 0.028-0.097 0.003-0.010 0.007-0.020 0.010-0.029 0.007-0.022 0.015-0.044 0.023-0.066 0.005-0.012 0.010-0.024 0.014-0.036 0.007-0.019 0.015-0.038 0.023-0.057 0.005-0.013 0.011-0.026 0.017-0.038 0.008-0.018 0.016-0.035 0.025-0.053 0.006-0.013 0.013-0.026 0.019-0.038 0.009-0.017 0.018-0.034 0.027-0.051 0.007-0.012 0.014-0.025 0.021-0.037 0.010-0.017 0.020-0.033 0.030-0.050 0.007-0.012 0.014-0.024 0.022-0.036 0.011-0.017 0.022-0.033 0.033-0.050 0.007-0.011 0.015-0.023 0.022-0.033 0.012-0.018 0.025-0.035 0.038-0.052 0.007-0.010 0.014-0.019 0.021-0.028 0.017-0.022 0.035-0.044 0.053-0.066 0.003-0.004 0.006-0.008 0.009-0.012 0.022-0.025 0.044-0.050 0.066-0.074 0.007-0.008 0.014-0.015 0.022-0.023 0.016-0.017 0.032-0.033 0.048-0.049 0.009-0.009 0.019-0.018 0.028-0.027 0.015-0.014 0.029-0.028 0.045-0.042 0.010-0.009 0.021-0.018 0.031-0.027 0.015-0.013 0.030-0.025 0.045-0.038 0.011-0.009 0.022-0.018 0.033-0.027 0.015-0.012 0.031-0.024 0.046-0.035 0.011-0.008 0.023-0.017 0.034-0.025 0.016-0.012 0.032-0.023 0.048-0.033 0.012-0.008 0.023-0.016 0.035-0.023 0.017-0.011 0.034-0.022 0.052-0.032 0.012-0.007 0.023-0.014 0.034-0.021 0.019-0.011 0.038-0.022 0.058-0.033 0.010-0.006 0.020-0.011 0.030-0.017 0.027-0.015 0.055-0.028 0.083-0.042 0.002-0.001 0.005-0.003 0.007-0.004 0.031-0.014 0.062-0.028 0.093-0.041 0.010-0.004 0.020-0.008 0.031-0.012 0.022-0.008 0.043-0.017 0.065-0.025 0.012-0.004 0.025-0.008 0.038-0.013 0.020-0.007 0.039-0.013 0.060-0.020 0.014-0.004 0.027-0.008 0.041-0.012 0.020-0.006 0.039-0.011 0.059-0.016 0.014-0.004 0.028-0.007 0.043-0.011 0.020-0.005 0.039-0.009 0.059-0.013 0.014-0.003 0.029-0.006 0.044-0.009 0.020-0.004 0.040-0.007 0.061-0.010 0.014-0.003 0.029-0.005 0.043-0.007 0.021-0.003 0.042-0.006 0.064-0.008 0.014-0.001 0.027-0.003 0.041-0.005 0.024-0.002 0.048-0.004 0.072-0.005 0.012-0.001 0.023-0.002 0.035-0.002 0.036-0.002 0.072-0.003 0.108-0.003s0.072 0.001 0.108 0.003c0.012 0 0.023 0.001 0.035 0.002 0.024 0.001 0.048 0.003 0.071 0.005 0.014 0.001 0.028 0.003 0.041 0.005 0.022 0.003 0.043 0.005 0.064 0.008 0.015 0.002 0.029 0.004 0.043 0.007 0.020 0.003 0.041 0.007 0.061 0.010 0.015 0.003 0.029 0.006 0.043 0.009 0.020 0.004 0.039 0.008 0.059 0.013 0.014 0.003 0.029 0.007 0.043 0.011 0.020 0.005 0.039 0.011 0.059 0.016 0.014 0.004 0.027 0.008 0.041 0.012 0.020 0.006 0.040 0.013 0.060 0.020 0.013 0.005 0.025 0.008 0.038 0.013 0.022 0.008 0.043 0.017 0.065 0.025 0.010 0.004 0.020 0.008 0.031 0.012 0.031 0.013 0.062 0.027 0.093 0.041 0.003 0.001 0.005 0.002 0.007 0.004 0.028 0.013 0.056 0.027 0.083 0.042 0.010 0.005 0.020 0.011 0.030 0.017 0.019 0.011 0.039 0.021 0.058 0.033 0.012 0.007 0.023 0.014 0.034 0.021 0.017 0.010 0.035 0.021 0.052 0.032 0.012 0.008 0.023 0.015 0.035 0.023 0.016 0.011 0.032 0.022 0.048 0.033 0.012 0.008 0.023 0.017 0.034 0.025 0.016 0.012 0.031 0.024 0.046 0.035 0.011 0.009 0.022 0.018 0.033 0.027 0.015 0.012 0.030 0.025 0.045 0.038 0.010 0.009 0.021 0.018 0.031 0.027 0.015 0.014 0.030 0.028 0.045 0.042 0.009 0.009 0.019 0.017 0.028 0.026 0.016 0.016 0.032 0.033 0.048 0.049 0.007 0.007 0.014 0.015 0.021 0.022 0.022 0.024 0.044 0.049 0.066 0.074 0.003 0.004 0.006 0.007 0.009 0.011 0.018 0.022 0.036 0.044 0.054 0.067 0.007 0.009 0.014 0.018 0.021 0.028 0.013 0.017 0.026 0.035 0.038 0.053 0.007 0.011 0.015 0.022 0.022 0.033 0.011 0.017 0.022 0.033 0.033 0.050 0.007 0.012 0.015 0.024 0.022 0.035 0.010 0.017 0.020 0.033 0.030 0.050 0.007 0.012 0.014 0.025 0.020 0.037 0.009 0.017 0.018 0.034 0.027 0.051 0.006 0.013 0.012 0.025 0.019 0.038 0.009 0.018 0.017 0.036 0.025 0.054 0.006 0.012 0.012 0.025 0.017 0.037 0.008 0.019 0.016 0.039 0.024 0.058 0.005 0.012 0.009 0.024 0.014 0.035 0.008 0.022 0.016 0.045 0.023 0.068 0.003 0.009 0.007 0.018 0.009 0.028 0.010 0.032 0.020 0.065 0.029 0.097 0.001 0.005 0.002 0.010 0.003 0.015 0.007 0.028 0.014 0.056 0.020 0.084 0.003 0.011 0.005 0.023 0.007 0.034 0.003 0.018 0.007 0.035 0.010 0.053h6.226v-10.446c0-0.194 0.161-0.351 0.36-0.351h5.209c0.009 0 0.036 0 0.053-0.031s0.002-0.053-0.003-0.060l-1.127-1.65c-0.109-0.16-0.292-0.255-0.489-0.255h-9.408c-0.052 0-0.102 0.020-0.139 0.056l-0.596 0.582c-0.173 0.169-0.404 0.262-0.649 0.262h-6.205c-0.322 0-0.583 0.255-0.583 0.569v9.020z"></path>
<path d="M10.058 3.599h2.279c0.46 0 0.835 0.365 0.835 0.815v7.523c0 0.194-0.161 0.351-0.36 0.351h-3.228c-0.199 0-0.36-0.157-0.36-0.351v-7.523c-0-0.449 0.374-0.815 0.835-0.815zM9.943 11.585h2.508v-4.134h-2.508v4.134zM9.943 6.748h2.508v-2.335c0-0.062-0.051-0.112-0.114-0.112h-2.279c-0.063 0-0.114 0.050-0.114 0.112v2.335h0zM2.768 3.599h4.407c0.509 0 0.924 0.404 0.924 0.901v2.050c0 0.497-0.414 0.901-0.924 0.901h-4.407c-0.509 0-0.924-0.404-0.924-0.901v-2.050c0-0.497 0.415-0.901 0.924-0.901zM2.565 6.55c0 0.109 0.091 0.198 0.203 0.198h4.407c0.112 0 0.203-0.089 0.203-0.198v-2.050c0-0.109-0.091-0.198-0.203-0.198h-4.407c-0.112 0-0.203 0.089-0.203 0.198v2.050h0z"></path>
</symbol>
<symbol id="icon-automatic" viewBox="0 0 15 16">
<path stroke-linejoin="round" stroke-linecap="round" stroke-miterlimit="4" stroke-width="1.3333" d="M11.704 7.259h1.111c0.295 0 0.577-0.117 0.786-0.325s0.325-0.491 0.325-0.786-0.117-0.577-0.325-0.786c-0.208-0.208-0.491-0.325-0.786-0.325h-1.111v3.704M11.704 11.704v2.963h0.741c0.393 0 0.77-0.156 1.048-0.434s0.434-0.655 0.434-1.048c0-0.393-0.156-0.77-0.434-1.048s-0.655-0.434-1.048-0.434h-0.741zM1.333 2.815c0 0.393 0.156 0.77 0.434 1.048s0.655 0.434 1.048 0.434c0.393 0 0.77-0.156 1.048-0.434s0.434-0.655 0.434-1.048c0-0.393-0.156-0.77-0.434-1.048s-0.655-0.434-1.048-0.434c-0.393 0-0.77 0.156-1.048 0.434s-0.434 0.655-0.434 1.048z"></path>
<path stroke-linejoin="round" stroke-linecap="round" stroke-miterlimit="4" stroke-width="1.3333" d="M2.815 4.296v2.222c0 0.196 0.078 0.385 0.217 0.524s0.327 0.217 0.524 0.217h2.222M5.778 7.259v5.185c0 0.196 0.078 0.385 0.217 0.524s0.327 0.217 0.524 0.217h2.222M5.778 7.259h2.963"></path>
</symbol>
<symbol id="icon-beds" viewBox="0 0 17 16">
<path stroke-linejoin="round" stroke-linecap="round" stroke-miterlimit="4" stroke-width="0.896" d="M3.12 10.4v-2.8c0.001-0.424 0.17-0.83 0.47-1.13s0.706-0.469 1.13-0.47h7.2c0.424 0.001 0.83 0.17 1.13 0.47s0.469 0.706 0.47 1.13v2.8M11.52 6h-7.2v-2.6c0.001-0.265 0.106-0.519 0.294-0.706s0.441-0.293 0.706-0.294h6c0.265 0.001 0.519 0.106 0.706 0.294s0.293 0.441 0.294 0.706v2.6h-0.8z"></path>
<path stroke-linejoin="round" stroke-linecap="round" stroke-miterlimit="4" stroke-width="0.896" d="M3.12 10.4v-0.2c0-0.159 0.064-0.311 0.176-0.424s0.265-0.176 0.424-0.176h9.2c0.159 0 0.311 0.064 0.424 0.176s0.176 0.265 0.176 0.424v0.2M4.72 6v-0.4c0.001-0.212 0.085-0.415 0.235-0.565s0.353-0.234 0.565-0.235h2c0.212 0.001 0.415 0.085 0.565 0.235s0.234 0.353 0.235 0.565M8.32 5.6v0.4M8.32 5.6c0.001-0.212 0.085-0.415 0.235-0.565s0.353-0.234 0.565-0.235h2c0.212 0.001 0.415 0.085 0.565 0.235s0.234 0.353 0.235 0.565v0.4"></path>
</symbol>
<symbol id="icon-default_like" viewBox="0 0 16 16">
<path stroke-linejoin="round" stroke-linecap="round" stroke-miterlimit="4" stroke-width="1.5333" d="M13.893 3.073c-0.34-0.341-0.745-0.611-1.19-0.795s-0.922-0.279-1.404-0.279-0.959 0.095-1.404 0.279c-0.445 0.184-0.849 0.455-1.19 0.795l-0.707 0.707-0.707-0.707c-0.688-0.688-1.621-1.074-2.593-1.074s-1.906 0.386-2.593 1.074c-0.688 0.688-1.074 1.621-1.074 2.593s0.386 1.906 1.074 2.593l5.893 5.893 5.893-5.893c0.341-0.341 0.611-0.745 0.795-1.19s0.279-0.922 0.279-1.404-0.095-0.959-0.279-1.404c-0.184-0.445-0.455-0.849-0.795-1.19z"></path>
</symbol>
<symbol id="icon-fully" viewBox="0 0 23 16">
<path d="M1.304 0.9h6.205c0.052 0 0.102-0.020 0.139-0.056l0.596-0.582c0.173-0.169 0.404-0.262 0.649-0.262h9.408c0.438 0 0.845 0.212 1.088 0.568l1.128 1.65c0.16 0.234 0.175 0.534 0.039 0.782s-0.4 0.402-0.689 0.402h-4.849v0.478h2.483c0.658 0 1.251 0.382 1.509 0.972l1.454 3.325 1.274 0.497c0.68 0.265 1.12 0.899 1.12 1.613v3.079c0 0.459-0.383 0.833-0.854 0.833h-1.482c-0.172 1.019-1.082 1.8-2.175 1.8s-2.003-0.78-2.175-1.8h-8.102c-0.172 1.019-1.082 1.8-2.175 1.8s-2.003-0.78-2.175-1.8h-2.96c-0.419 0-0.759-0.332-0.759-0.74v-11.288c0-0.702 0.585-1.272 1.304-1.272zM18.346 15.297c0.819 0 1.484-0.65 1.484-1.448s-0.666-1.448-1.484-1.448c-0.819 0-1.484 0.65-1.484 1.448s0.666 1.448 1.484 1.448zM15.017 13.497h1.154c0.003-0.018 0.007-0.035 0.010-0.052 0.002-0.012 0.004-0.024 0.007-0.035 0.006-0.028 0.012-0.055 0.019-0.082 0.001-0.006 0.003-0.011 0.004-0.017 0.009-0.033 0.018-0.065 0.028-0.097 0.003-0.009 0.006-0.019 0.009-0.028 0.007-0.023 0.015-0.045 0.023-0.067 0.005-0.012 0.009-0.024 0.014-0.035 0.007-0.019 0.015-0.039 0.023-0.058 0.005-0.013 0.011-0.025 0.017-0.037 0.008-0.018 0.016-0.036 0.025-0.054 0.006-0.013 0.012-0.025 0.019-0.038 0.009-0.017 0.018-0.035 0.027-0.051 0.007-0.012 0.014-0.025 0.020-0.037 0.009-0.017 0.020-0.034 0.030-0.050 0.007-0.012 0.014-0.024 0.022-0.035 0.011-0.017 0.022-0.033 0.033-0.050 0.007-0.011 0.015-0.022 0.022-0.033 0.012-0.018 0.025-0.035 0.039-0.053 0.007-0.009 0.013-0.019 0.020-0.028 0.018-0.023 0.036-0.045 0.055-0.067 0.003-0.003 0.005-0.007 0.008-0.010 0.021-0.025 0.044-0.050 0.066-0.074 0.007-0.008 0.014-0.015 0.021-0.022 0.016-0.017 0.032-0.033 0.048-0.049 0.009-0.009 0.019-0.018 0.028-0.026 0.015-0.014 0.030-0.028 0.045-0.042 0.010-0.009 0.020-0.018 0.031-0.027 0.015-0.013 0.030-0.026 0.045-0.038l0.033-0.026c0.015-0.012 0.031-0.024 0.046-0.036 0.011-0.008 0.023-0.017 0.034-0.025 0.016-0.012 0.032-0.023 0.048-0.034 0.012-0.008 0.023-0.015 0.035-0.023 0.017-0.011 0.035-0.022 0.052-0.033 0.011-0.007 0.022-0.014 0.034-0.021 0.019-0.011 0.039-0.022 0.058-0.033 0.010-0.006 0.020-0.011 0.030-0.017 0.028-0.015 0.056-0.029 0.084-0.042 0.002-0.001 0.004-0.002 0.007-0.003 0.031-0.014 0.062-0.028 0.093-0.041 0.010-0.004 0.020-0.008 0.031-0.012 0.021-0.008 0.043-0.017 0.065-0.025 0.012-0.004 0.025-0.008 0.037-0.013 0.020-0.007 0.040-0.013 0.060-0.020 0.014-0.004 0.027-0.008 0.041-0.012 0.020-0.006 0.039-0.011 0.059-0.016 0.014-0.004 0.028-0.007 0.043-0.011 0.020-0.005 0.039-0.009 0.059-0.013 0.014-0.003 0.029-0.006 0.043-0.009 0.020-0.004 0.040-0.007 0.061-0.010 0.014-0.003 0.029-0.005 0.043-0.007 0.021-0.003 0.042-0.006 0.064-0.008 0.014-0.001 0.027-0.003 0.041-0.005 0.024-0.002 0.048-0.004 0.071-0.005 0.012-0.001 0.023-0.002 0.035-0.002 0.036-0.002 0.072-0.003 0.108-0.003s0.072 0.001 0.108 0.003c0.012 0 0.023 0.001 0.035 0.002 0.024 0.001 0.048 0.003 0.071 0.005 0.014 0.001 0.028 0.003 0.041 0.005 0.022 0.003 0.043 0.005 0.064 0.008 0.015 0.002 0.029 0.004 0.043 0.007 0.020 0.003 0.041 0.007 0.061 0.010 0.015 0.003 0.029 0.006 0.044 0.009 0.020 0.004 0.039 0.008 0.059 0.013 0.014 0.003 0.029 0.007 0.043 0.011 0.020 0.005 0.039 0.011 0.059 0.016 0.014 0.004 0.027 0.008 0.041 0.012 0.020 0.006 0.040 0.013 0.060 0.020 0.012 0.005 0.025 0.008 0.037 0.013 0.022 0.008 0.043 0.017 0.065 0.025 0.010 0.004 0.020 0.008 0.031 0.012 0.031 0.013 0.062 0.027 0.093 0.041 0.002 0.001 0.004 0.002 0.007 0.003 0.028 0.014 0.056 0.028 0.084 0.042 0.010 0.005 0.020 0.011 0.030 0.017 0.020 0.011 0.039 0.021 0.058 0.033 0.012 0.007 0.023 0.014 0.034 0.021 0.017 0.011 0.035 0.021 0.052 0.033 0.012 0.008 0.023 0.015 0.035 0.023 0.016 0.011 0.033 0.022 0.048 0.034 0.011 0.008 0.023 0.017 0.034 0.025 0.016 0.012 0.031 0.024 0.046 0.036l0.033 0.026c0.015 0.013 0.030 0.025 0.045 0.038 0.010 0.009 0.021 0.018 0.031 0.027 0.015 0.014 0.030 0.028 0.045 0.042 0.009 0.009 0.019 0.017 0.028 0.026 0.016 0.016 0.032 0.033 0.048 0.049 0.007 0.007 0.014 0.014 0.021 0.022 0.022 0.024 0.045 0.049 0.066 0.074 0.003 0.003 0.005 0.007 0.008 0.010 0.018 0.022 0.037 0.044 0.054 0.067 0.007 0.009 0.014 0.018 0.020 0.028 0.013 0.017 0.026 0.035 0.039 0.053 0.007 0.011 0.015 0.022 0.022 0.033 0.011 0.017 0.022 0.033 0.033 0.050 0.007 0.012 0.014 0.024 0.022 0.035 0.010 0.017 0.020 0.033 0.030 0.050 0.007 0.012 0.014 0.025 0.020 0.037 0.009 0.017 0.018 0.034 0.027 0.051 0.007 0.013 0.013 0.025 0.019 0.038 0.009 0.018 0.017 0.036 0.025 0.054 0.006 0.012 0.011 0.025 0.017 0.037 0.008 0.019 0.016 0.039 0.023 0.058 0.005 0.012 0.009 0.024 0.014 0.035 0.008 0.022 0.016 0.045 0.023 0.067 0.003 0.010 0.007 0.019 0.010 0.028 0.010 0.032 0.020 0.064 0.028 0.097 0.002 0.006 0.003 0.011 0.004 0.017 0.007 0.027 0.014 0.055 0.019 0.082 0.003 0.012 0.005 0.024 0.007 0.035 0.003 0.017 0.007 0.035 0.010 0.052h1.482c0.074 0 0.133-0.058 0.133-0.13v-1.473h-0.562v-0.703h0.562v-0.903c0-0.426-0.262-0.803-0.667-0.961l-1.348-0.526h-5.104v4.696zM15.017 8.098h4.629l-1.299-2.97c-0.145-0.331-0.477-0.545-0.846-0.545h-2.483v3.515zM5.894 15.297c0.819 0 1.484-0.65 1.484-1.448s-0.666-1.448-1.484-1.448c-0.026 0-0.051 0.001-0.076 0.002-0.682 0.034-1.244 0.519-1.378 1.155-0.005 0.024-0.010 0.048-0.013 0.071-0.007 0.048-0.012 0.096-0.015 0.146-0.001 0.025-0.002 0.049-0.002 0.075 0 0.799 0.666 1.448 1.484 1.448zM0.721 11.192h0.562v0.703h-0.562v1.565c0 0.021 0.017 0.037 0.038 0.037h2.96c0.003-0.017 0.007-0.035 0.010-0.052 0.002-0.012 0.004-0.024 0.007-0.036 0.006-0.027 0.012-0.054 0.019-0.080 0.002-0.006 0.003-0.013 0.005-0.019 0.009-0.033 0.018-0.065 0.028-0.097 0.003-0.010 0.007-0.020 0.010-0.029 0.007-0.022 0.015-0.044 0.023-0.066 0.005-0.012 0.010-0.024 0.014-0.036 0.007-0.019 0.015-0.038 0.023-0.057 0.005-0.013 0.011-0.026 0.017-0.038 0.008-0.018 0.016-0.035 0.025-0.053 0.006-0.013 0.013-0.026 0.019-0.038 0.009-0.017 0.018-0.034 0.027-0.051 0.007-0.012 0.014-0.025 0.021-0.037 0.010-0.017 0.020-0.033 0.030-0.050 0.007-0.012 0.014-0.024 0.022-0.036 0.011-0.017 0.022-0.033 0.033-0.050 0.007-0.011 0.015-0.023 0.022-0.033 0.012-0.018 0.025-0.035 0.038-0.052 0.007-0.010 0.014-0.019 0.021-0.028 0.017-0.022 0.035-0.044 0.053-0.066 0.003-0.004 0.006-0.008 0.009-0.012 0.022-0.025 0.044-0.050 0.066-0.074 0.007-0.008 0.014-0.015 0.022-0.023 0.016-0.017 0.032-0.033 0.048-0.049 0.009-0.009 0.019-0.018 0.028-0.027 0.015-0.014 0.029-0.028 0.045-0.042 0.010-0.009 0.021-0.018 0.031-0.027 0.015-0.013 0.030-0.025 0.045-0.038 0.011-0.009 0.022-0.018 0.033-0.027 0.015-0.012 0.031-0.024 0.046-0.035 0.011-0.008 0.023-0.017 0.034-0.025 0.016-0.012 0.032-0.023 0.048-0.033 0.012-0.008 0.023-0.016 0.035-0.023 0.017-0.011 0.034-0.022 0.052-0.032 0.012-0.007 0.023-0.014 0.034-0.021 0.019-0.011 0.038-0.022 0.058-0.033 0.010-0.006 0.020-0.011 0.030-0.017 0.027-0.015 0.055-0.028 0.083-0.042 0.002-0.001 0.005-0.003 0.007-0.004 0.031-0.014 0.062-0.028 0.093-0.041 0.010-0.004 0.020-0.008 0.031-0.012 0.022-0.008 0.043-0.017 0.065-0.025 0.012-0.004 0.025-0.008 0.038-0.013 0.020-0.007 0.039-0.013 0.060-0.020 0.014-0.004 0.027-0.008 0.041-0.012 0.020-0.006 0.039-0.011 0.059-0.016 0.014-0.004 0.028-0.007 0.043-0.011 0.020-0.005 0.039-0.009 0.059-0.013 0.014-0.003 0.029-0.006 0.044-0.009 0.020-0.004 0.040-0.007 0.061-0.010 0.014-0.003 0.029-0.005 0.043-0.007 0.021-0.003 0.042-0.006 0.064-0.008 0.014-0.001 0.027-0.003 0.041-0.005 0.024-0.002 0.048-0.004 0.072-0.005 0.012-0.001 0.023-0.002 0.035-0.002 0.036-0.002 0.072-0.003 0.108-0.003s0.072 0.001 0.108 0.003c0.012 0 0.023 0.001 0.035 0.002 0.024 0.001 0.048 0.003 0.071 0.005 0.014 0.001 0.028 0.003 0.041 0.005 0.022 0.003 0.043 0.005 0.064 0.008 0.015 0.002 0.029 0.004 0.043 0.007 0.020 0.003 0.041 0.007 0.061 0.010 0.015 0.003 0.029 0.006 0.043 0.009 0.020 0.004 0.039 0.008 0.059 0.013 0.014 0.003 0.029 0.007 0.043 0.011 0.020 0.005 0.039 0.011 0.059 0.016 0.014 0.004 0.027 0.008 0.041 0.012 0.020 0.006 0.040 0.013 0.060 0.020 0.013 0.005 0.025 0.008 0.038 0.013 0.022 0.008 0.043 0.017 0.065 0.025 0.010 0.004 0.020 0.008 0.031 0.012 0.031 0.013 0.062 0.027 0.093 0.041 0.003 0.001 0.005 0.002 0.007 0.004 0.028 0.013 0.056 0.027 0.083 0.042 0.010 0.005 0.020 0.011 0.030 0.017 0.019 0.011 0.039 0.021 0.058 0.033 0.012 0.007 0.023 0.014 0.034 0.021 0.017 0.010 0.035 0.021 0.052 0.032 0.012 0.008 0.023 0.015 0.035 0.023 0.016 0.011 0.032 0.022 0.048 0.033 0.012 0.008 0.023 0.017 0.034 0.025 0.016 0.012 0.031 0.024 0.046 0.035 0.011 0.009 0.022 0.018 0.033 0.027 0.015 0.012 0.030 0.025 0.045 0.038 0.010 0.009 0.021 0.018 0.031 0.027 0.015 0.014 0.030 0.028 0.045 0.042 0.009 0.009 0.019 0.017 0.028 0.026 0.016 0.016 0.032 0.033 0.048 0.049 0.007 0.007 0.014 0.015 0.021 0.022 0.022 0.024 0.044 0.049 0.066 0.074 0.003 0.004 0.006 0.007 0.009 0.011 0.018 0.022 0.036 0.044 0.054 0.067 0.007 0.009 0.014 0.018 0.021 0.028 0.013 0.017 0.026 0.035 0.038 0.053 0.007 0.011 0.015 0.022 0.022 0.033 0.011 0.017 0.022 0.033 0.033 0.050 0.007 0.012 0.015 0.024 0.022 0.035 0.010 0.017 0.020 0.033 0.030 0.050 0.007 0.012 0.014 0.025 0.020 0.037 0.009 0.017 0.018 0.034 0.027 0.051 0.006 0.013 0.012 0.025 0.019 0.038 0.009 0.018 0.017 0.036 0.025 0.054 0.006 0.012 0.012 0.025 0.017 0.037 0.008 0.019 0.016 0.039 0.024 0.058 0.005 0.012 0.009 0.024 0.014 0.035 0.008 0.022 0.016 0.045 0.023 0.068 0.003 0.009 0.007 0.018 0.009 0.028 0.010 0.032 0.020 0.065 0.029 0.097 0.001 0.005 0.002 0.010 0.003 0.015 0.007 0.028 0.014 0.056 0.020 0.084 0.003 0.011 0.005 0.023 0.007 0.034 0.003 0.018 0.007 0.035 0.010 0.053h6.226v-10.446c0-0.194 0.161-0.351 0.36-0.351h5.209c0.009 0 0.036 0 0.053-0.031s0.002-0.053-0.003-0.060l-1.127-1.65c-0.109-0.16-0.292-0.255-0.489-0.255h-9.408c-0.052 0-0.102 0.020-0.139 0.056l-0.596 0.582c-0.173 0.169-0.404 0.262-0.649 0.262h-6.205c-0.322 0-0.583 0.255-0.583 0.569v9.020z"></path>
<path d="M10.058 3.599h2.279c0.46 0 0.835 0.365 0.835 0.815v7.523c0 0.194-0.161 0.351-0.36 0.351h-3.228c-0.199 0-0.36-0.157-0.36-0.351v-7.523c-0-0.449 0.374-0.815 0.835-0.815zM9.943 11.585h2.508v-4.134h-2.508v4.134zM9.943 6.748h2.508v-2.335c0-0.062-0.051-0.112-0.114-0.112h-2.279c-0.063 0-0.114 0.050-0.114 0.112l0 2.335z"></path>
</symbol>
<symbol id="icon-kitchen" viewBox="0 0 12 16">
<path stroke-linejoin="round" stroke-linecap="round" stroke-miterlimit="4" stroke-width="1.3333" d="M11.407 10.222v-8.889c-3.567 3.403-3.721 6.162-3.704 8.889h3.704zM11.407 10.222v4.444h-0.741v-2.222M3.259 2.074v12.593M1.037 2.074v2.222c0 0.589 0.234 1.155 0.651 1.571s0.982 0.651 1.571 0.651c0.589 0 1.155-0.234 1.571-0.651s0.651-0.982 0.651-1.571v-2.222"></path>
</symbol>
<symbol id="icon-like" viewBox="0 0 16 16">
<path fill="#e44848" style="fill: var(--color1, #e44848); stroke: var(--color1, #e44848)" stroke="#e44848" stroke-linejoin="round" stroke-linecap="round" stroke-miterlimit="4" stroke-width="1.5333" d="M13.893 3.073c-0.34-0.341-0.745-0.611-1.19-0.795s-0.922-0.279-1.404-0.279-0.959 0.095-1.404 0.279c-0.445 0.184-0.849 0.455-1.19 0.795l-0.707 0.707-0.707-0.707c-0.688-0.688-1.621-1.074-2.593-1.074s-1.906 0.386-2.593 1.074c-0.688 0.688-1.074 1.621-1.074 2.593s0.386 1.906 1.074 2.593l5.893 5.893 5.893-5.893c0.341-0.341 0.611-0.745 0.795-1.19s0.279-0.922 0.279-1.404-0.095-0.959-0.279-1.404c-0.184-0.445-0.455-0.849-0.795-1.19z"></path>
</symbol>
<symbol id="icon-petrol" viewBox="0 0 15 16">
<path d="M13.475 4.025l0.008-0.008-3.1-3.1-0.883 0.883 1.758 1.758c-0.783 0.3-1.342 1.050-1.342 1.942 0 0.274 0.054 0.545 0.159 0.797s0.258 0.482 0.452 0.676c0.391 0.391 0.921 0.61 1.473 0.61 0.3 0 0.575-0.067 0.833-0.175v6.008c0 0.221-0.088 0.433-0.244 0.589s-0.368 0.244-0.589 0.244c-0.221 0-0.433-0.088-0.589-0.244s-0.244-0.368-0.244-0.589v-3.75c0-0.442-0.176-0.866-0.488-1.179s-0.736-0.488-1.178-0.488h-0.833v-5.833c0-0.442-0.176-0.866-0.488-1.179s-0.736-0.488-1.179-0.488h-5c-0.442 0-0.866 0.176-1.179 0.488s-0.488 0.736-0.488 1.179v13.333h8.333v-6.25h1.25v4.167c0 0.553 0.22 1.082 0.61 1.473s0.921 0.61 1.473 0.61c0.274 0 0.544-0.054 0.797-0.159s0.482-0.258 0.676-0.452c0.193-0.193 0.347-0.423 0.452-0.676s0.159-0.524 0.159-0.797v-7.917c0-0.575-0.233-1.1-0.608-1.475zM7 9.25v4.583h-5v-5.833h5v1.25zM7 6.333h-5v-4.167h5v4.167zM12 6.333c-0.221 0-0.433-0.088-0.589-0.244s-0.244-0.368-0.244-0.589 0.088-0.433 0.244-0.589c0.156-0.156 0.368-0.244 0.589-0.244s0.433 0.088 0.589 0.244c0.156 0.156 0.244 0.368 0.244 0.589s-0.088 0.433-0.244 0.589c-0.156 0.156-0.368 0.244-0.589 0.244z"></path>
</symbol>
<symbol id="icon-route" viewBox="0 0 16 16">
<path d="M3.333 2c-0.736 0-1.333 0.597-1.333 1.333s0.597 1.333 1.333 1.333c0.736 0 1.333-0.597 1.333-1.333s-0.597-1.333-1.333-1.333zM0.667 3.333c0-1.473 1.194-2.667 2.667-2.667s2.667 1.194 2.667 2.667c0 1.473-1.194 2.667-2.667 2.667s-2.667-1.194-2.667-2.667z"></path>
<path d="M12.667 11.333c-0.736 0-1.333 0.597-1.333 1.333s0.597 1.333 1.333 1.333c0.736 0 1.333-0.597 1.333-1.333s-0.597-1.333-1.333-1.333zM10 12.667c0-1.473 1.194-2.667 2.667-2.667s2.667 1.194 2.667 2.667c0 1.473-1.194 2.667-2.667 2.667s-2.667-1.194-2.667-2.667z"></path>
<path d="M6.667 3.333c0-0.368 0.298-0.667 0.667-0.667h4.2c2.065 0 2.81 2.702 0.994 3.714l-7.736 4.402c-0.58 0.322-0.391 1.217 0.343 1.217h3.533c0.368 0 0.667 0.298 0.667 0.667s-0.298 0.667-0.667 0.667h-3.533c-2.065 0-2.81-2.702-0.994-3.714l7.737-4.402c0.58-0.322 0.391-1.217-0.343-1.217h-4.2c-0.368 0-0.667-0.298-0.667-0.667z"></path>
</symbol>
<symbol id="icon-shower" viewBox="0 0 16 16">
<path stroke-linejoin="round" stroke-linecap="round" stroke-miterlimit="4" stroke-width="1.3333" d="M0.889 0.889l2.222 2.222M9.333 3.111c-0.828-0.811-1.943-1.263-3.102-1.257s-2.269 0.469-3.089 1.289c-0.82 0.82-1.283 1.93-1.289 3.089s0.446 2.274 1.257 3.102M10.667 1.778l-8.889 8.889M9.778 12.444v0.009M6.222 11.556v0.009M8.889 8.889v0.009M11.556 6.222v0.009M7.111 15.111v0.009M12.444 9.778v0.009M15.111 7.111v0.009"></path>
</symbol>
<symbol id="icon-tv" viewBox="0 0 14 16">
<path stroke-linejoin="round" stroke-linecap="round" stroke-miterlimit="4" stroke-width="0.96" d="M11.2 13.333h-8.533c-1.182 0-2.133-0.951-2.133-2.133v-5.333c0-1.182 0.951-2.133 2.133-2.133h8.533c1.182 0 2.133 0.951 2.133 2.133v5.333c0 1.182-0.951 2.133-2.133 2.133z"></path>
<path stroke-linejoin="round" stroke-linecap="round" stroke-miterlimit="4" stroke-width="0.96" d="M4.8 15.467h4.267"></path>
<path stroke-linejoin="round" stroke-linecap="round" stroke-miterlimit="4" stroke-width="0.96" d="M6.933 3.733l3.2-3.2"></path>
<path stroke-linejoin="round" stroke-linecap="round" stroke-miterlimit="4" stroke-width="0.96" d="M6.933 3.733l-3.2-3.2"></path>
</symbol>
<symbol id="icon-user" viewBox="0 0 23 16">
<path d="M6.476 13.809h-3.143c-0.19 0-0.286-0.095-0.381-0.19s-0.19-0.286-0.095-0.476c0.571-1.619 2-2.571 3.619-2.571 2 0 3.619-1.714 3.619-3.714s-1.619-3.905-3.619-3.905c-2 0-3.619 1.714-3.619 3.81 0 0.952 0.381 1.905 0.952 2.571-1.238 0.667-2.19 1.714-2.762 3.143-0.19 0.667-0.095 1.524 0.381 2.19s1.143 1.048 1.905 1.048h3.143c0.571 0 0.952-0.381 0.952-0.952s-0.381-0.952-0.952-0.952zM4.762 6.762c0-1.048 0.762-1.81 1.714-1.81s1.714 0.857 1.714 1.81c0 1.048-0.762 1.81-1.714 1.81s-1.714-0.857-1.714-1.81z"></path>
<path d="M21.809 11.905c-0.667-1.81-2-3.143-3.524-3.905 0.857-0.762 1.333-1.905 1.333-3.238 0-2.476-1.905-4.476-4.19-4.476s-4.191 2-4.191 4.476c0 1.238 0.476 2.381 1.333 3.238-1.524 0.762-2.857 2.095-3.524 3.905-0.476 0.857-0.286 1.809 0.19 2.571s1.333 1.143 2.19 1.143h7.905c0.857 0 1.714-0.476 2.191-1.143 0.571-0.762 0.667-1.714 0.286-2.571zM13.048 4.857c0-1.429 1.048-2.571 2.286-2.571s2.286 1.143 2.286 2.571-1.048 2.571-2.286 2.571c-1.238 0-2.286-1.238-2.286-2.571zM19.905 13.429c-0.095 0.095-0.286 0.381-0.571 0.381h-7.905c-0.381 0-0.571-0.286-0.571-0.381-0.095-0.095-0.286-0.476-0.095-0.857 0.762-2 2.667-3.333 4.667-3.333s3.905 1.333 4.667 3.333c0.095 0.381-0.095 0.762-0.191 0.857z"></path>
</symbol>
<symbol id="icon-van" viewBox="0 0 23 16">
<path d="M1.304 0.9h6.205c0.052 0 0.102-0.020 0.139-0.056l0.596-0.582c0.173-0.169 0.404-0.262 0.649-0.262h9.408c0.438 0 0.845 0.212 1.088 0.568l1.128 1.65c0.16 0.234 0.175 0.534 0.039 0.782s-0.4 0.402-0.689 0.402h-4.849v0.478h2.483c0.658 0 1.251 0.382 1.509 0.972l1.454 3.325 1.274 0.497c0.68 0.265 1.12 0.899 1.12 1.613v3.079c0 0.459-0.383 0.833-0.854 0.833h-1.482c-0.172 1.019-1.082 1.8-2.175 1.8s-2.003-0.78-2.175-1.8h-8.102c-0.172 1.019-1.082 1.8-2.175 1.8s-2.003-0.78-2.175-1.8h-2.96c-0.419 0-0.759-0.332-0.759-0.74v-11.288c0-0.702 0.585-1.272 1.304-1.272zM18.346 15.297c0.819 0 1.484-0.65 1.484-1.448s-0.666-1.448-1.484-1.448c-0.819 0-1.484 0.65-1.484 1.448s0.666 1.448 1.484 1.448zM15.017 13.497h1.154c0.003-0.018 0.007-0.035 0.010-0.052 0.002-0.012 0.004-0.024 0.007-0.035 0.006-0.028 0.012-0.055 0.019-0.082 0.001-0.006 0.003-0.011 0.004-0.017 0.009-0.033 0.018-0.065 0.028-0.097 0.003-0.009 0.006-0.019 0.009-0.028 0.007-0.023 0.015-0.045 0.023-0.067 0.005-0.012 0.009-0.024 0.014-0.035 0.007-0.019 0.015-0.039 0.023-0.058 0.005-0.013 0.011-0.025 0.017-0.037 0.008-0.018 0.016-0.036 0.025-0.054 0.006-0.013 0.012-0.025 0.019-0.038 0.009-0.017 0.018-0.035 0.027-0.051 0.007-0.012 0.014-0.025 0.020-0.037 0.009-0.017 0.020-0.034 0.030-0.050 0.007-0.012 0.014-0.024 0.022-0.035 0.011-0.017 0.022-0.033 0.033-0.050 0.007-0.011 0.015-0.022 0.022-0.033 0.012-0.018 0.025-0.035 0.039-0.053 0.007-0.009 0.013-0.019 0.020-0.028 0.018-0.023 0.036-0.045 0.055-0.067 0.003-0.003 0.005-0.007 0.008-0.010 0.021-0.025 0.044-0.050 0.066-0.074 0.007-0.008 0.014-0.015 0.021-0.022 0.016-0.017 0.032-0.033 0.048-0.049 0.009-0.009 0.019-0.018 0.028-0.026 0.015-0.014 0.030-0.028 0.045-0.042 0.010-0.009 0.020-0.018 0.031-0.027 0.015-0.013 0.030-0.026 0.045-0.038l0.033-0.026c0.015-0.012 0.031-0.024 0.046-0.036 0.011-0.008 0.023-0.017 0.034-0.025 0.016-0.012 0.032-0.023 0.048-0.034 0.012-0.008 0.023-0.015 0.035-0.023 0.017-0.011 0.035-0.022 0.052-0.033 0.011-0.007 0.022-0.014 0.034-0.021 0.019-0.011 0.039-0.022 0.058-0.033 0.010-0.006 0.020-0.011 0.030-0.017 0.028-0.015 0.056-0.029 0.084-0.042 0.002-0.001 0.004-0.002 0.007-0.003 0.031-0.014 0.062-0.028 0.093-0.041 0.010-0.004 0.020-0.008 0.031-0.012 0.021-0.008 0.043-0.017 0.065-0.025 0.012-0.004 0.025-0.008 0.037-0.013 0.020-0.007 0.040-0.013 0.060-0.020 0.014-0.004 0.027-0.008 0.041-0.012 0.020-0.006 0.039-0.011 0.059-0.016 0.014-0.004 0.028-0.007 0.043-0.011 0.020-0.005 0.039-0.009 0.059-0.013 0.014-0.003 0.029-0.006 0.043-0.009 0.020-0.004 0.040-0.007 0.061-0.010 0.014-0.003 0.029-0.005 0.043-0.007 0.021-0.003 0.042-0.006 0.064-0.008 0.014-0.001 0.027-0.003 0.041-0.005 0.024-0.002 0.048-0.004 0.071-0.005 0.012-0.001 0.023-0.002 0.035-0.002 0.036-0.002 0.072-0.003 0.108-0.003s0.072 0.001 0.108 0.003c0.012 0 0.023 0.001 0.035 0.002 0.024 0.001 0.048 0.003 0.071 0.005 0.014 0.001 0.028 0.003 0.041 0.005 0.022 0.003 0.043 0.005 0.064 0.008 0.015 0.002 0.029 0.004 0.043 0.007 0.020 0.003 0.041 0.007 0.061 0.010 0.015 0.003 0.029 0.006 0.044 0.009 0.020 0.004 0.039 0.008 0.059 0.013 0.014 0.003 0.029 0.007 0.043 0.011 0.020 0.005 0.039 0.011 0.059 0.016 0.014 0.004 0.027 0.008 0.041 0.012 0.020 0.006 0.040 0.013 0.060 0.020 0.012 0.005 0.025 0.008 0.037 0.013 0.022 0.008 0.043 0.017 0.065 0.025 0.010 0.004 0.020 0.008 0.031 0.012 0.031 0.013 0.062 0.027 0.093 0.041 0.002 0.001 0.004 0.002 0.007 0.003 0.028 0.014 0.056 0.028 0.084 0.042 0.010 0.005 0.020 0.011 0.030 0.017 0.020 0.011 0.039 0.021 0.058 0.033 0.012 0.007 0.023 0.014 0.034 0.021 0.017 0.011 0.035 0.021 0.052 0.033 0.012 0.008 0.023 0.015 0.035 0.023 0.016 0.011 0.033 0.022 0.048 0.034 0.011 0.008 0.023 0.017 0.034 0.025 0.016 0.012 0.031 0.024 0.046 0.036l0.033 0.026c0.015 0.013 0.030 0.025 0.045 0.038 0.010 0.009 0.021 0.018 0.031 0.027 0.015 0.014 0.030 0.028 0.045 0.042 0.009 0.009 0.019 0.017 0.028 0.026 0.016 0.016 0.032 0.033 0.048 0.049 0.007 0.007 0.014 0.014 0.021 0.022 0.022 0.024 0.045 0.049 0.066 0.074 0.003 0.003 0.005 0.007 0.008 0.010 0.018 0.022 0.037 0.044 0.054 0.067 0.007 0.009 0.014 0.018 0.020 0.028 0.013 0.017 0.026 0.035 0.039 0.053 0.007 0.011 0.015 0.022 0.022 0.033 0.011 0.017 0.022 0.033 0.033 0.050 0.007 0.012 0.014 0.024 0.022 0.035 0.010 0.017 0.020 0.033 0.030 0.050 0.007 0.012 0.014 0.025 0.020 0.037 0.009 0.017 0.018 0.034 0.027 0.051 0.007 0.013 0.013 0.025 0.019 0.038 0.009 0.018 0.017 0.036 0.025 0.054 0.006 0.012 0.011 0.025 0.017 0.037 0.008 0.019 0.016 0.039 0.023 0.058 0.005 0.012 0.009 0.024 0.014 0.035 0.008 0.022 0.016 0.045 0.023 0.067 0.003 0.010 0.007 0.019 0.010 0.028 0.010 0.032 0.020 0.064 0.028 0.097 0.002 0.006 0.003 0.011 0.004 0.017 0.007 0.027 0.014 0.055 0.019 0.082 0.003 0.012 0.005 0.024 0.007 0.035 0.003 0.017 0.007 0.035 0.010 0.052h1.482c0.074 0 0.133-0.058 0.133-0.13v-1.473h-0.562v-0.703h0.562v-0.903c0-0.426-0.262-0.803-0.667-0.961l-1.348-0.526h-5.104v4.696zM15.017 8.098h4.629l-1.299-2.97c-0.145-0.331-0.477-0.545-0.846-0.545h-2.483v3.515zM5.894 15.297c0.819 0 1.484-0.65 1.484-1.448s-0.666-1.448-1.484-1.448c-0.026 0-0.051 0.001-0.076 0.002-0.682 0.034-1.244 0.519-1.378 1.155-0.005 0.024-0.010 0.048-0.013 0.071-0.007 0.048-0.012 0.096-0.015 0.146-0.001 0.025-0.002 0.049-0.002 0.075 0 0.799 0.666 1.448 1.484 1.448zM0.721 11.192h0.562v0.703h-0.562v1.565c0 0.021 0.017 0.037 0.038 0.037h2.96c0.003-0.017 0.007-0.035 0.010-0.052 0.002-0.012 0.004-0.024 0.007-0.036 0.006-0.027 0.012-0.054 0.019-0.080 0.002-0.006 0.003-0.013 0.005-0.019 0.009-0.033 0.018-0.065 0.028-0.097 0.003-0.010 0.007-0.020 0.010-0.029 0.007-0.022 0.015-0.044 0.023-0.066 0.005-0.012 0.010-0.024 0.014-0.036 0.007-0.019 0.015-0.038 0.023-0.057 0.005-0.013 0.011-0.026 0.017-0.038 0.008-0.018 0.016-0.035 0.025-0.053 0.006-0.013 0.013-0.026 0.019-0.038 0.009-0.017 0.018-0.034 0.027-0.051 0.007-0.012 0.014-0.025 0.021-0.037 0.010-0.017 0.020-0.033 0.030-0.050 0.007-0.012 0.014-0.024 0.022-0.036 0.011-0.017 0.022-0.033 0.033-0.050 0.007-0.011 0.015-0.023 0.022-0.033 0.012-0.018 0.025-0.035 0.038-0.052 0.007-0.010 0.014-0.019 0.021-0.028 0.017-0.022 0.035-0.044 0.053-0.066 0.003-0.004 0.006-0.008 0.009-0.012 0.022-0.025 0.044-0.050 0.066-0.074 0.007-0.008 0.014-0.015 0.022-0.023 0.016-0.017 0.032-0.033 0.048-0.049 0.009-0.009 0.019-0.018 0.028-0.027 0.015-0.014 0.029-0.028 0.045-0.042 0.010-0.009 0.021-0.018 0.031-0.027 0.015-0.013 0.030-0.025 0.045-0.038 0.011-0.009 0.022-0.018 0.033-0.027 0.015-0.012 0.031-0.024 0.046-0.035 0.011-0.008 0.023-0.017 0.034-0.025 0.016-0.012 0.032-0.023 0.048-0.033 0.012-0.008 0.023-0.016 0.035-0.023 0.017-0.011 0.034-0.022 0.052-0.032 0.012-0.007 0.023-0.014 0.034-0.021 0.019-0.011 0.038-0.022 0.058-0.033 0.010-0.006 0.020-0.011 0.030-0.017 0.027-0.015 0.055-0.028 0.083-0.042 0.002-0.001 0.005-0.003 0.007-0.004 0.031-0.014 0.062-0.028 0.093-0.041 0.010-0.004 0.020-0.008 0.031-0.012 0.022-0.008 0.043-0.017 0.065-0.025 0.012-0.004 0.025-0.008 0.038-0.013 0.020-0.007 0.039-0.013 0.060-0.020 0.014-0.004 0.027-0.008 0.041-0.012 0.020-0.006 0.039-0.011 0.059-0.016 0.014-0.004 0.028-0.007 0.043-0.011 0.020-0.005 0.039-0.009 0.059-0.013 0.014-0.003 0.029-0.006 0.044-0.009 0.020-0.004 0.040-0.007 0.061-0.010 0.014-0.003 0.029-0.005 0.043-0.007 0.021-0.003 0.042-0.006 0.064-0.008 0.014-0.001 0.027-0.003 0.041-0.005 0.024-0.002 0.048-0.004 0.072-0.005 0.012-0.001 0.023-0.002 0.035-0.002 0.036-0.002 0.072-0.003 0.108-0.003s0.072 0.001 0.108 0.003c0.012 0 0.023 0.001 0.035 0.002 0.024 0.001 0.048 0.003 0.071 0.005 0.014 0.001 0.028 0.003 0.041 0.005 0.022 0.003 0.043 0.005 0.064 0.008 0.015 0.002 0.029 0.004 0.043 0.007 0.020 0.003 0.041 0.007 0.061 0.010 0.015 0.003 0.029 0.006 0.043 0.009 0.020 0.004 0.039 0.008 0.059 0.013 0.014 0.003 0.029 0.007 0.043 0.011 0.020 0.005 0.039 0.011 0.059 0.016 0.014 0.004 0.027 0.008 0.041 0.012 0.020 0.006 0.040 0.013 0.060 0.020 0.013 0.005 0.025 0.008 0.038 0.013 0.022 0.008 0.043 0.017 0.065 0.025 0.010 0.004 0.020 0.008 0.031 0.012 0.031 0.013 0.062 0.027 0.093 0.041 0.003 0.001 0.005 0.002 0.007 0.004 0.028 0.013 0.056 0.027 0.083 0.042 0.010 0.005 0.020 0.011 0.030 0.017 0.019 0.011 0.039 0.021 0.058 0.033 0.012 0.007 0.023 0.014 0.034 0.021 0.017 0.010 0.035 0.021 0.052 0.032 0.012 0.008 0.023 0.015 0.035 0.023 0.016 0.011 0.032 0.022 0.048 0.033 0.012 0.008 0.023 0.017 0.034 0.025 0.016 0.012 0.031 0.024 0.046 0.035 0.011 0.009 0.022 0.018 0.033 0.027 0.015 0.012 0.030 0.025 0.045 0.038 0.010 0.009 0.021 0.018 0.031 0.027 0.015 0.014 0.030 0.028 0.045 0.042 0.009 0.009 0.019 0.017 0.028 0.026 0.016 0.016 0.032 0.033 0.048 0.049 0.007 0.007 0.014 0.015 0.021 0.022 0.022 0.024 0.044 0.049 0.066 0.074 0.003 0.004 0.006 0.007 0.009 0.011 0.018 0.022 0.036 0.044 0.054 0.067 0.007 0.009 0.014 0.018 0.021 0.028 0.013 0.017 0.026 0.035 0.038 0.053 0.007 0.011 0.015 0.022 0.022 0.033 0.011 0.017 0.022 0.033 0.033 0.050 0.007 0.012 0.015 0.024 0.022 0.035 0.010 0.017 0.020 0.033 0.030 0.050 0.007 0.012 0.014 0.025 0.020 0.037 0.009 0.017 0.018 0.034 0.027 0.051 0.006 0.013 0.012 0.025 0.019 0.038 0.009 0.018 0.017 0.036 0.025 0.054 0.006 0.012 0.012 0.025 0.017 0.037 0.008 0.019 0.016 0.039 0.024 0.058 0.005 0.012 0.009 0.024 0.014 0.035 0.008 0.022 0.016 0.045 0.023 0.068 0.003 0.009 0.007 0.018 0.009 0.028 0.010 0.032 0.020 0.065 0.029 0.097 0.001 0.005 0.002 0.010 0.003 0.015 0.007 0.028 0.014 0.056 0.020 0.084 0.003 0.011 0.005 0.023 0.007 0.034 0.003 0.018 0.007 0.035 0.010 0.053h6.226v-10.446c0-0.194 0.161-0.351 0.36-0.351h5.209c0.009 0 0.036 0 0.053-0.031s0.002-0.053-0.003-0.060l-1.127-1.65c-0.109-0.16-0.292-0.255-0.489-0.255h-9.408c-0.052 0-0.102 0.020-0.139 0.056l-0.596 0.582c-0.173 0.169-0.404 0.262-0.649 0.262h-6.205c-0.322 0-0.583 0.255-0.583 0.569v9.020z"></path>
<path d="M2.768 3.599h4.407c0.509 0 0.924 0.404 0.924 0.901v2.050c0 0.497-0.415 0.901-0.924 0.901h-4.407c-0.509 0-0.924-0.404-0.924-0.901v-2.050c0-0.497 0.415-0.901 0.924-0.901zM2.565 6.55c0 0.109 0.091 0.198 0.203 0.198h4.407c0.112 0 0.203-0.089 0.203-0.198v-2.050c0-0.109-0.091-0.198-0.203-0.198h-4.407c-0.112 0-0.203 0.089-0.203 0.198l0 2.050z"></path>
</symbol>
</defs>
</svg>
