<svg  aria-hidden="true" style="position:absolute;width:0;height:0;overflow:hidden" xmlns="http://www.w3.org/2000/svg">
  <defs>
    <symbol id="icon-Button" viewBox="0 0 16 16">
      <path stroke-linejoin="round" stroke-linecap="round" stroke-width="1.2" d="M12.667 2.667H3.334c-.736 0-1.333.597-1.333 1.333v9.333c0 .736.597 1.333 1.333 1.333h9.333c.736 0 1.333-.597 1.333-1.333V4c0-.736-.597-1.333-1.333-1.333zm-2-1.334V4M5.333 1.333V4M2 6.667h12"/>
    </symbol>
    <symbol id="icon-ac" viewBox="0 0 20 16">
      <path d="M9.69 0c-.938 0-1.847.32-2.573.906S5.894 2.307 5.71 3.212l-.072.359a.613.613 0 0 0 .486.745.632.632 0 0 0 .651-.275.618.618 0 0 0 .089-.229l.074-.358a2.765 2.765 0 0 1 1.085-1.676 2.84 2.84 0 0 1 3.749.366c.468.507.728 1.168.729 1.853 0 .735-.296 1.439-.824 1.959s-1.243.812-1.989.812H.625a.63.63 0 0 0-.442.18.61.61 0 0 0 0 .87.63.63 0 0 0 .442.18h9.063c1.06-.026 2.068-.458 2.809-1.205s1.155-1.75 1.156-2.794-.414-2.047-1.154-2.794A4.091 4.091 0 0 0 9.691-.002zm7.185 5.538c-.829 0-1.624.324-2.21.901s-.915 1.36-.915 2.176c0 .163.066.32.183.435a.63.63 0 0 0 .884 0A.61.61 0 0 0 15 8.615c0-.365.11-.722.316-1.026s.499-.54.842-.68a1.902 1.902 0 0 1 2.043.4 1.824 1.824 0 0 1 .406 2.012 1.848 1.848 0 0 1-.691.829 1.894 1.894 0 0 1-1.042.311H.624a.63.63 0 0 0-.442.18.61.61 0 0 0 0 .87.63.63 0 0 0 .442.18h12.188c.414.001.812.164 1.104.453s.456.681.456 1.089c-.001.408-.166.799-.46 1.087s-.691.449-1.106.448c-.373 0-.735-.13-1.02-.367s-.476-.566-.539-.928l-.006-.037a.598.598 0 0 0-.249-.412.648.648 0 0 0-.473-.112.622.622 0 0 0-.509.481.613.613 0 0 0-.001.245l.006.037c.111.65.453 1.24.963 1.665a2.859 2.859 0 0 0 3.819-.151 2.753 2.753 0 0 0 .827-1.959c0-.57-.175-1.099-.474-1.538h1.724c.829 0 1.624-.324 2.21-.901s.915-1.36.915-2.176-.329-1.599-.915-2.176a3.15 3.15 0 0 0-2.21-.901z"/>

    </symbol>
    <symbol id="icon-alcove" viewBox="0 0 23 16">
      <path d="M1.304.9h6.205a.2.2 0 0 0 .139-.056l.596-.582A.923.923 0 0 1 8.893 0h9.408c.438 0 .845.212 1.088.568l1.128 1.65c.16.234.175.534.039.782s-.4.402-.689.402h-4.849v.478h2.483a1.64 1.64 0 0 1 1.509.972l1.454 3.325 1.274.497a1.73 1.73 0 0 1 1.12 1.613v3.079a.845.845 0 0 1-.854.833h-1.482c-.172 1.019-1.082 1.8-2.175 1.8s-2.003-.78-2.175-1.8H8.07c-.172 1.019-1.082 1.8-2.175 1.8s-2.003-.78-2.175-1.8H.76a.75.75 0 0 1-.759-.74V2.171c0-.702.585-1.272 1.304-1.272zm17.042 14.397c.819 0 1.484-.65 1.484-1.448s-.666-1.448-1.484-1.448c-.819 0-1.484.65-1.484 1.448s.666 1.448 1.484 1.448zm-3.329-1.8h1.154l.01-.052a1.968 1.968 0 0 1 .026-.117l.004-.017.028-.097.009-.028.023-.067.014-.035a1.396 1.396 0 0 1 .084-.187l.027-.051a.67.67 0 0 0 .02-.037c.009-.017.02-.034.03-.05l.022-.035.033-.05.022-.033a.896.896 0 0 1 .039-.053l.02-.028a1.78 1.78 0 0 1 .055-.067l.008-.01.066-.074a2.241 2.241 0 0 1 .097-.097l.045-.042.031-.027.045-.038.033-.026.046-.036.034-.025.048-.034.035-.023.052-.033.034-.021.058-.033.03-.017.084-.042.007-.003.093-.041.031-.012.065-.025.037-.013.06-.02.041-.012a1.29 1.29 0 0 1 .059-.016l.043-.011.059-.013.043-.009.061-.01.043-.007.064-.008.041-.005.071-.005.035-.002a1.947 1.947 0 0 1 .216 0l.035.002a1.582 1.582 0 0 1 .112.01l.064.008a.551.551 0 0 1 .043.007l.061.01.044.009a1.246 1.246 0 0 1 .102.024l.059.016.041.012.06.02.037.013.065.025.031.012.093.041.007.003.084.042.03.017c.02.011.039.021.058.033l.034.021c.017.011.035.021.052.033l.035.023c.016.011.033.022.048.034l.034.025.046.036.033.026.045.038.031.027.045.042.028.026.048.049.021.022.066.074.008.01c.018.022.037.044.054.067a.283.283 0 0 1 .02.028l.039.053.022.033.033.05.022.035.03.05a.67.67 0 0 1 .02.037l.027.051a1.3 1.3 0 0 1 .044.092l.017.037.023.058.014.035.023.067.01.028a1.546 1.546 0 0 1 .051.196l.007.035.01.052H22a.131.131 0 0 0 .133-.13v-1.473h-.562v-.703h.562v-.903a1.03 1.03 0 0 0-.667-.961l-1.348-.526h-5.104v4.696zm0-5.399h4.629l-1.299-2.97a.92.92 0 0 0-.846-.545h-2.483v3.515zm-9.123 7.199c.819 0 1.484-.65 1.484-1.448s-.666-1.448-1.484-1.448l-.076.002a1.477 1.477 0 0 0-1.378 1.155c-.005.024-.01.048-.013.071a1.717 1.717 0 0 0-.015.146l-.002.075c0 .799.666 1.448 1.484 1.448zM.721 11.192h.562v.703H.721v1.565c0 .021.017.037.038.037h2.96l.01-.052.007-.036.019-.08.005-.019.028-.097.01-.029.023-.066.014-.036.023-.057a1.266 1.266 0 0 1 .042-.091l.019-.038.027-.051.021-.037.03-.05.022-.036.033-.05a.945.945 0 0 1 .022-.033l.038-.052.021-.028.053-.066.009-.012.066-.074.022-.023.048-.049.028-.027.045-.042.031-.027.045-.038.033-.027a1.4 1.4 0 0 1 .046-.035l.034-.025a.686.686 0 0 1 .048-.033l.035-.023.052-.032.034-.021.058-.033.03-.017c.027-.015.055-.028.083-.042l.007-.004.093-.041.031-.012.065-.025.038-.013.06-.02.041-.012a1.29 1.29 0 0 1 .059-.016l.043-.011a1.246 1.246 0 0 1 .103-.022l.061-.01.043-.007.064-.008.041-.005a1.74 1.74 0 0 1 .072-.005l.035-.002a1.947 1.947 0 0 1 .216 0l.035.002a1.582 1.582 0 0 1 .112.01l.064.008a.551.551 0 0 1 .043.007l.061.01a3.14 3.14 0 0 1 .145.033l.059.016.041.012.06.02.038.013.065.025.031.012a3.763 3.763 0 0 1 .1.045 1.29 1.29 0 0 1 .113.059c.019.011.039.021.058.033l.034.021.052.032.035.023.048.033.034.025.046.035.033.027.045.038.031.027.045.042.028.026.048.049.021.022.066.074.009.011.054.067.021.028.038.053.022.033.033.05.022.035.03.05a.67.67 0 0 1 .02.037l.027.051a1.3 1.3 0 0 1 .061.129l.024.058.014.035.023.068c.003.009.007.018.009.028l.029.097.003.015.02.084.007.034.01.053h6.226V3.049c0-.194.161-.351.36-.351h5.209c.009 0 .036 0 .053-.031s.002-.053-.003-.06L18.79.957a.59.59 0 0 0-.489-.255H8.893a.2.2 0 0 0-.139.056l-.596.582a.923.923 0 0 1-.649.262H1.304a.576.576 0 0 0-.583.569v9.02z"/>
      <path d="M10.058 3.599h2.279c.46 0 .835.365.835.815v7.523a.355.355 0 0 1-.36.351H9.584a.355.355 0 0 1-.36-.351V4.414c0-.449.374-.815.835-.815zm-.115 7.986h2.508V7.451H9.943v4.134zm0-4.837h2.508V4.413a.113.113 0 0 0-.114-.112h-2.279a.113.113 0 0 0-.114.112v2.335zM2.768 3.599h4.407c.509 0 .924.404.924.901v2.05a.913.913 0 0 1-.924.901H2.768a.914.914 0 0 1-.924-.901V4.5c0-.497.415-.901.924-.901zM2.565 6.55a.2.2 0 0 0 .203.198h4.407a.2.2 0 0 0 .203-.198V4.5a.2.2 0 0 0-.203-.198H2.768a.2.2 0 0 0-.203.198v2.05z"/>
    </symbol>
    <symbol id="icon-automatic" viewBox="0 0 15 16">
      <path stroke-linejoin="round" stroke-linecap="round" stroke-width="1.333" d="M11.704 7.259h1.111a1.114 1.114 0 0 0 1.111-1.111 1.114 1.114 0 0 0-1.111-1.111h-1.111v3.704m0 2.963v2.963h.741a1.482 1.482 0 1 0 0-2.964h-.741zM1.333 2.815a1.482 1.482 0 1 0 2.964 0 1.482 1.482 0 0 0-2.964 0z"/>
      <path stroke-linejoin="round" stroke-linecap="round" stroke-width="1.333" d="M2.815 4.296v2.222a.742.742 0 0 0 .741.741h2.222m0 0v5.185a.742.742 0 0 0 .741.741h2.222M5.778 7.259h2.963"/>
    </symbol>
    <symbol id="icon-beds" viewBox="0 0 17 16">
      <path stroke-linejoin="round" stroke-linecap="round" stroke-width=".896" d="M3.12 10.4V7.6A1.603 1.603 0 0 1 4.72 6h7.2a1.603 1.603 0 0 1 1.6 1.6v2.8m-2-4.4h-7.2V3.4a1 1 0 0 1 1-1h6a1 1 0 0 1 1 1V6h-.8z"/>
      <path stroke-linejoin="round" stroke-linecap="round" stroke-width=".896" d="M3.12 10.4v-.2a.603.603 0 0 1 .6-.6h9.2a.603.603 0 0 1 .6.6v.2M4.72 6v-.4a.804.804 0 0 1 .8-.8h2a.804.804 0 0 1 .8.8m0 0V6m0-.4a.804.804 0 0 1 .8-.8h2a.804.804 0 0 1 .8.8V6"/>
    </symbol>
    <symbol id="icon-default_like" viewBox="0 0 16 16">
      <path stroke-linejoin="round" stroke-linecap="round" stroke-width="1.533" d="M13.893 3.073a3.674 3.674 0 0 0-5.188 0l-.707.707-.707-.707a3.667 3.667 0 0 0-5.186 5.186l5.893 5.893 5.893-5.893a3.66 3.66 0 0 0 1.074-2.594 3.674 3.674 0 0 0-1.074-2.594z"/>
    </symbol>
    <symbol id="icon-fully" viewBox="0 0 23 16">
      <path d="M1.304.9h6.205a.2.2 0 0 0 .139-.056l.596-.582A.923.923 0 0 1 8.893 0h9.408c.438 0 .845.212 1.088.568l1.128 1.65c.16.234.175.534.039.782s-.4.402-.689.402h-4.849v.478h2.483a1.64 1.64 0 0 1 1.509.972l1.454 3.325 1.274.497a1.73 1.73 0 0 1 1.12 1.613v3.079a.845.845 0 0 1-.854.833h-1.482c-.172 1.019-1.082 1.8-2.175 1.8s-2.003-.78-2.175-1.8H8.07c-.172 1.019-1.082 1.8-2.175 1.8s-2.003-.78-2.175-1.8H.76a.75.75 0 0 1-.759-.74V2.171c0-.702.585-1.272 1.304-1.272zm17.042 14.397c.819 0 1.484-.65 1.484-1.448s-.666-1.448-1.484-1.448c-.819 0-1.484.65-1.484 1.448s.666 1.448 1.484 1.448zm-3.329-1.8h1.154l.01-.052a1.968 1.968 0 0 1 .026-.117l.004-.017.028-.097.009-.028.023-.067.014-.035a1.396 1.396 0 0 1 .084-.187l.027-.051a.67.67 0 0 0 .02-.037c.009-.017.02-.034.03-.05l.022-.035.033-.05.022-.033a.896.896 0 0 1 .039-.053l.02-.028a1.78 1.78 0 0 1 .055-.067l.008-.01.066-.074a2.241 2.241 0 0 1 .097-.097l.045-.042.031-.027.045-.038.033-.026.046-.036.034-.025.048-.034.035-.023.052-.033.034-.021.058-.033.03-.017.084-.042.007-.003.093-.041.031-.012.065-.025.037-.013.06-.02.041-.012a1.29 1.29 0 0 1 .059-.016l.043-.011.059-.013.043-.009.061-.01.043-.007.064-.008.041-.005.071-.005.035-.002a1.947 1.947 0 0 1 .216 0l.035.002a1.582 1.582 0 0 1 .112.01l.064.008a.551.551 0 0 1 .043.007l.061.01.044.009a1.246 1.246 0 0 1 .102.024l.059.016.041.012.06.02.037.013.065.025.031.012.093.041.007.003.084.042.03.017c.02.011.039.021.058.033l.034.021c.017.011.035.021.052.033l.035.023c.016.011.033.022.048.034l.034.025.046.036.033.026.045.038.031.027.045.042.028.026.048.049.021.022.066.074.008.01c.018.022.037.044.054.067a.283.283 0 0 1 .02.028l.039.053.022.033.033.05.022.035.03.05a.67.67 0 0 1 .02.037l.027.051a1.3 1.3 0 0 1 .044.092l.017.037.023.058.014.035.023.067.01.028a1.546 1.546 0 0 1 .051.196l.007.035.01.052H22a.131.131 0 0 0 .133-.13v-1.473h-.562v-.703h.562v-.903a1.03 1.03 0 0 0-.667-.961l-1.348-.526h-5.104v4.696zm0-5.399h4.629l-1.299-2.97a.92.92 0 0 0-.846-.545h-2.483v3.515zm-9.123 7.199c.819 0 1.484-.65 1.484-1.448s-.666-1.448-1.484-1.448l-.076.002a1.477 1.477 0 0 0-1.378 1.155c-.005.024-.01.048-.013.071a1.717 1.717 0 0 0-.015.146l-.002.075c0 .799.666 1.448 1.484 1.448zM.721 11.192h.562v.703H.721v1.565c0 .021.017.037.038.037h2.96l.01-.052.007-.036.019-.08.005-.019.028-.097.01-.029.023-.066.014-.036.023-.057a1.266 1.266 0 0 1 .042-.091l.019-.038.027-.051.021-.037.03-.05.022-.036.033-.05a.945.945 0 0 1 .022-.033l.038-.052.021-.028.053-.066.009-.012.066-.074.022-.023.048-.049.028-.027.045-.042.031-.027.045-.038.033-.027a1.4 1.4 0 0 1 .046-.035l.034-.025a.686.686 0 0 1 .048-.033l.035-.023.052-.032.034-.021.058-.033.03-.017c.027-.015.055-.028.083-.042l.007-.004.093-.041.031-.012.065-.025.038-.013.06-.02.041-.012a1.29 1.29 0 0 1 .059-.016l.043-.011a1.246 1.246 0 0 1 .103-.022l.061-.01.043-.007.064-.008.041-.005a1.74 1.74 0 0 1 .072-.005l.035-.002a1.947 1.947 0 0 1 .216 0l.035.002a1.582 1.582 0 0 1 .112.01l.064.008a.551.551 0 0 1 .043.007l.061.01a3.14 3.14 0 0 1 .145.033l.059.016.041.012.06.02.038.013.065.025.031.012a3.763 3.763 0 0 1 .1.045 1.29 1.29 0 0 1 .113.059c.019.011.039.021.058.033l.034.021.052.032.035.023.048.033.034.025.046.035.033.027.045.038.031.027.045.042.028.026.048.049.021.022.066.074.009.011.054.067.021.028.038.053.022.033.033.05.022.035.03.05a.67.67 0 0 1 .02.037l.027.051a1.3 1.3 0 0 1 .061.129l.024.058.014.035.023.068c.003.009.007.018.009.028l.029.097.003.015.02.084.007.034.01.053h6.226V3.049c0-.194.161-.351.36-.351h5.209c.009 0 .036 0 .053-.031s.002-.053-.003-.06L18.79.957a.59.59 0 0 0-.489-.255H8.893a.2.2 0 0 0-.139.056l-.596.582a.923.923 0 0 1-.649.262H1.304a.576.576 0 0 0-.583.569v9.02z"/>
      <path d="M10.058 3.599h2.279c.46 0 .835.365.835.815v7.523a.355.355 0 0 1-.36.351H9.584a.355.355 0 0 1-.36-.351V4.414c0-.449.374-.815.835-.815zm-.115 7.986h2.508V7.451H9.943v4.134zm0-4.837h2.508V4.413a.113.113 0 0 0-.114-.112h-2.279a.113.113 0 0 0-.114.112v2.335z"/>
    </symbol>
    <symbol id="icon-kitchen" viewBox="0 0 12 16">
      <path stroke-linejoin="round" stroke-linecap="round" stroke-width="1.333" d="M11.407 10.222V1.333C7.84 4.736 7.686 7.495 7.703 10.222h3.704zm0 0v4.444h-.741v-2.222M3.259 2.074v12.593M1.037 2.074v2.222a2.22 2.22 0 0 0 2.222 2.222 2.22 2.22 0 0 0 2.222-2.222V2.074"/>
    </symbol>
    <symbol id="icon-like" viewBox="0 0 16 16">
      <path fill="#e44848" style="fill:var(--color1, #e44848);stroke:var(--color1, #e44848)" stroke="#e44848" stroke-linejoin="round" stroke-linecap="round" stroke-width="1.533" d="M13.893 3.073a3.674 3.674 0 0 0-5.188 0l-.707.707-.707-.707a3.667 3.667 0 0 0-5.186 5.186l5.893 5.893 5.893-5.893a3.66 3.66 0 0 0 1.074-2.594 3.674 3.674 0 0 0-1.074-2.594z"/>
    </symbol>
    <symbol id="icon-petrol" viewBox="0 0 15 16">
      <path d="m13.475 4.025.008-.008-3.1-3.1L9.5 1.8l1.758 1.758a2.078 2.078 0 0 0-.731 3.415 2.083 2.083 0 0 0 2.306.435v6.008a.833.833 0 0 1-1.666 0v-3.75a1.663 1.663 0 0 0-1.666-1.667h-.833V2.166A1.663 1.663 0 0 0 7.001.499h-5A1.663 1.663 0 0 0 .334 2.166v13.333h8.333v-6.25h1.25v4.167A2.085 2.085 0 0 0 12 15.499a2.076 2.076 0 0 0 1.473-.611 2.09 2.09 0 0 0 .611-1.473V5.498c0-.575-.233-1.1-.608-1.475zM7 9.25v4.583H2V8h5v1.25zm0-2.917H2V2.166h5v4.167zm5 0a.833.833 0 1 1 0-1.667.833.833 0 0 1 0 1.667z"/>
    </symbol>
    <symbol id="icon-route" viewBox="0 0 16 16">
      <path d="M3.333 2a1.333 1.333 0 1 0 0 2.667 1.333 1.333 0 0 0 0-2.667zM.667 3.333a2.667 2.667 0 1 1 5.334 0 2.667 2.667 0 0 1-5.334 0zm12 8a1.333 1.333 0 1 0 0 2.667 1.333 1.333 0 0 0 0-2.667zM10 12.667a2.667 2.667 0 1 1 5.334 0 2.667 2.667 0 0 1-5.334 0z"/>
      <path d="M6.667 3.333c0-.368.298-.667.667-.667h4.2c2.065 0 2.81 2.702.994 3.714l-7.736 4.402a.648.648 0 0 0 .343 1.217h3.533a.667.667 0 1 1 0 1.334H5.135c-2.065 0-2.81-2.702-.994-3.714l7.737-4.402A.648.648 0 0 0 11.535 4h-4.2a.667.667 0 0 1-.667-.667z"/>
    </symbol>
    <symbol id="icon-shower" viewBox="0 0 16 16">
      <path stroke-linejoin="round" stroke-linecap="round" stroke-width="1.333" d="m.889.889 2.222 2.222m6.222 0A4.401 4.401 0 0 0 3.11 9.334m7.557-7.556-8.889 8.889m8 1.777v.009m-3.556-.897v.009m2.667-2.676v.009m2.667-2.676v.009m-4.445 8.88v.009m5.333-5.342v.009m2.667-2.676v.009"/>
    </symbol>
    <symbol id="icon-tv" viewBox="0 0 14 16">
      <path stroke-linejoin="round" stroke-linecap="round" stroke-width=".96" d="M11.2 13.333H2.667A2.128 2.128 0 0 1 .534 11.2V5.867c0-1.182.951-2.133 2.133-2.133H11.2c1.182 0 2.133.951 2.133 2.133V11.2a2.128 2.128 0 0 1-2.133 2.133zm-6.4 2.134h4.267M6.933 3.733l3.2-3.2m-3.2 3.2-3.2-3.2"/>
    </symbol>
    <symbol id="icon-user" viewBox="0 0 23 16">
      <path d="M6.476 13.809H3.333c-.19 0-.286-.095-.381-.19s-.19-.286-.095-.476c.571-1.619 2-2.571 3.619-2.571 2 0 3.619-1.714 3.619-3.714S8.476 2.953 6.476 2.953s-3.619 1.714-3.619 3.81c0 .952.381 1.905.952 2.571-1.238.667-2.19 1.714-2.762 3.143-.19.667-.095 1.524.381 2.19s1.143 1.048 1.905 1.048h3.143c.571 0 .952-.381.952-.952s-.381-.952-.952-.952zM4.762 6.762c0-1.048.762-1.81 1.714-1.81s1.714.857 1.714 1.81c0 1.048-.762 1.81-1.714 1.81s-1.714-.857-1.714-1.81z"/>
      <path d="M21.809 11.905c-.667-1.81-2-3.143-3.524-3.905.857-.762 1.333-1.905 1.333-3.238 0-2.476-1.905-4.476-4.19-4.476s-4.191 2-4.191 4.476c0 1.238.476 2.381 1.333 3.238-1.524.762-2.857 2.095-3.524 3.905-.476.857-.286 1.809.19 2.571s1.333 1.143 2.19 1.143h7.905c.857 0 1.714-.476 2.191-1.143a2.511 2.511 0 0 0 .286-2.571zm-8.761-7.048c0-1.429 1.048-2.571 2.286-2.571s2.286 1.143 2.286 2.571-1.048 2.571-2.286 2.571-2.286-1.238-2.286-2.571zm6.857 8.572c-.095.095-.286.381-.571.381h-7.905c-.381 0-.571-.286-.571-.381-.095-.095-.286-.476-.095-.857.762-2 2.667-3.333 4.667-3.333s3.905 1.333 4.667 3.333c.095.381-.095.762-.191.857z"/>
    </symbol>
    <symbol id="icon-van" viewBox="0 0 23 16">
      <path d="M1.304.9h6.205a.2.2 0 0 0 .139-.056l.596-.582A.923.923 0 0 1 8.893 0h9.408c.438 0 .845.212 1.088.568l1.128 1.65c.16.234.175.534.039.782s-.4.402-.689.402h-4.849v.478h2.483a1.64 1.64 0 0 1 1.509.972l1.454 3.325 1.274.497a1.73 1.73 0 0 1 1.12 1.613v3.079a.845.845 0 0 1-.854.833h-1.482c-.172 1.019-1.082 1.8-2.175 1.8s-2.003-.78-2.175-1.8H8.07c-.172 1.019-1.082 1.8-2.175 1.8s-2.003-.78-2.175-1.8H.76a.75.75 0 0 1-.759-.74V2.171c0-.702.585-1.272 1.304-1.272zm17.042 14.397c.819 0 1.484-.65 1.484-1.448s-.666-1.448-1.484-1.448c-.819 0-1.484.65-1.484 1.448s.666 1.448 1.484 1.448zm-3.329-1.8h1.154l.01-.052a1.968 1.968 0 0 1 .026-.117l.004-.017.028-.097.009-.028.023-.067.014-.035a1.396 1.396 0 0 1 .084-.187l.027-.051a.67.67 0 0 0 .02-.037c.009-.017.02-.034.03-.05l.022-.035.033-.05.022-.033a.896.896 0 0 1 .039-.053l.02-.028a1.78 1.78 0 0 1 .055-.067l.008-.01.066-.074a2.241 2.241 0 0 1 .097-.097l.045-.042.031-.027.045-.038.033-.026.046-.036.034-.025.048-.034.035-.023.052-.033.034-.021.058-.033.03-.017.084-.042.007-.003.093-.041.031-.012.065-.025.037-.013.06-.02.041-.012a1.29 1.29 0 0 1 .059-.016l.043-.011.059-.013.043-.009.061-.01.043-.007.064-.008.041-.005.071-.005.035-.002a1.947 1.947 0 0 1 .216 0l.035.002a1.582 1.582 0 0 1 .112.01l.064.008a.551.551 0 0 1 .043.007l.061.01.044.009a1.246 1.246 0 0 1 .102.024l.059.016.041.012.06.02.037.013.065.025.031.012.093.041.007.003.084.042.03.017c.02.011.039.021.058.033l.034.021c.017.011.035.021.052.033l.035.023c.016.011.033.022.048.034l.034.025.046.036.033.026.045.038.031.027.045.042.028.026.048.049.021.022.066.074.008.01c.018.022.037.044.054.067a.283.283 0 0 1 .02.028l.039.053.022.033.033.05.022.035.03.05a.67.67 0 0 1 .02.037l.027.051a1.3 1.3 0 0 1 .044.092l.017.037.023.058.014.035.023.067.01.028a1.546 1.546 0 0 1 .051.196l.007.035.01.052H22a.131.131 0 0 0 .133-.13v-1.473h-.562v-.703h.562v-.903a1.03 1.03 0 0 0-.667-.961l-1.348-.526h-5.104v4.696zm0-5.399h4.629l-1.299-2.97a.92.92 0 0 0-.846-.545h-2.483v3.515zm-9.123 7.199c.819 0 1.484-.65 1.484-1.448s-.666-1.448-1.484-1.448l-.076.002a1.477 1.477 0 0 0-1.378 1.155c-.005.024-.01.048-.013.071a1.717 1.717 0 0 0-.015.146l-.002.075c0 .799.666 1.448 1.484 1.448zM.721 11.192h.562v.703H.721v1.565c0 .021.017.037.038.037h2.96l.01-.052.007-.036.019-.08.005-.019.028-.097.01-.029.023-.066.014-.036.023-.057a1.266 1.266 0 0 1 .042-.091l.019-.038.027-.051.021-.037.03-.05.022-.036.033-.05a.945.945 0 0 1 .022-.033l.038-.052.021-.028.053-.066.009-.012.066-.074.022-.023.048-.049.028-.027.045-.042.031-.027.045-.038.033-.027a1.4 1.4 0 0 1 .046-.035l.034-.025a.686.686 0 0 1 .048-.033l.035-.023.052-.032.034-.021.058-.033.03-.017c.027-.015.055-.028.083-.042l.007-.004.093-.041.031-.012.065-.025.038-.013.06-.02.041-.012a1.29 1.29 0 0 1 .059-.016l.043-.011a1.246 1.246 0 0 1 .103-.022l.061-.01.043-.007.064-.008.041-.005a1.74 1.74 0 0 1 .072-.005l.035-.002a1.947 1.947 0 0 1 .216 0l.035.002a1.582 1.582 0 0 1 .112.01l.064.008a.551.551 0 0 1 .043.007l.061.01a3.14 3.14 0 0 1 .145.033l.059.016.041.012.06.02.038.013.065.025.031.012a3.763 3.763 0 0 1 .1.045 1.29 1.29 0 0 1 .113.059c.019.011.039.021.058.033l.034.021.052.032.035.023.048.033.034.025.046.035.033.027.045.038.031.027.045.042.028.026.048.049.021.022.066.074.009.011.054.067.021.028.038.053.022.033.033.05.022.035.03.05a.67.67 0 0 1 .02.037l.027.051a1.3 1.3 0 0 1 .061.129l.024.058.014.035.023.068c.003.009.007.018.009.028l.029.097.003.015.02.084.007.034.01.053h6.226V3.049c0-.194.161-.351.36-.351h5.209c.009 0 .036 0 .053-.031s.002-.053-.003-.06L18.79.957a.59.59 0 0 0-.489-.255H8.893a.2.2 0 0 0-.139.056l-.596.582a.923.923 0 0 1-.649.262H1.304a.576.576 0 0 0-.583.569v9.02z"/>
      <path d="M2.768 3.599h4.407c.509 0 .924.404.924.901v2.05a.914.914 0 0 1-.924.901H2.768a.914.914 0 0 1-.924-.901V4.5c0-.497.415-.901.924-.901zM2.565 6.55a.2.2 0 0 0 .203.198h4.407a.2.2 0 0 0 .203-.198V4.5a.2.2 0 0 0-.203-.198H2.768a.2.2 0 0 0-.203.198v2.05z"/>
    </symbol>
    <symbol id="icon-location" viewBox="0 0 14 16">
      <path stroke-linejoin="round" stroke-linecap="round" stroke-miterlimit="4" stroke-width="1.2" d="M13.2 6.667c0 4.667-6 8.667-6 8.667s-6-4-6-8.667c0-1.591 0.632-3.117 1.757-4.243s2.651-1.757 4.243-1.757c1.591 0 3.117 0.632 4.243 1.757s1.757 2.651 1.757 4.243z"></path>
      <path stroke-linejoin="round" stroke-linecap="round" stroke-miterlimit="4" stroke-width="1.2" d="M7.2 8.667c1.105 0 2-0.895 2-2s-0.895-2-2-2c-1.105 0-2 0.895-2 2s0.895 2 2 2z"></path>
    </symbol>
    <symbol id="icon-location2" viewBox="0 0 14 16">
      <path d="M8 0c-2.761 0-5 2.239-5 5 0 5 5 11 5 11s5-6 5-11c0-2.761-2.239-5-5-5zM8 8.063c-1.691 0-3.063-1.371-3.063-3.063s1.371-3.063 3.063-3.063 3.063 1.371 3.063 3.063-1.371 3.063-3.063 3.063zM6.063 5c0-1.070 0.867-1.938 1.938-1.938s1.938 0.867 1.938 1.938c0 1.070-0.867 1.938-1.938 1.938s-1.938-0.867-1.938-1.938z"></path>
    </symbol>
    <symbol id="icon-Rating" viewBox="0 0 34 32">
      <path stroke-linejoin="miter" stroke-linecap="butt" stroke-miterlimit="4" stroke-width="2.56" d="M13.227 10.020l3.84-7.277 3.84 7.277c0.34 0.644 0.959 1.093 1.675 1.217l8.108 1.403-5.735 5.9c-0.507 0.522-0.744 1.249-0.64 1.97l1.171 8.144-7.384-3.631c-0.653-0.321-1.418-0.321-2.071 0l-7.384 3.631 1.171-8.144c0.104-0.72-0.133-1.448-0.64-1.97l-5.735-5.9 8.108-1.403c0.717-0.124 1.336-0.574 1.675-1.217z"></path>
    </symbol>
    <symbol id="close" viewBox="0 0 32 32">
      <path stroke-linejoin="round" stroke-linecap="round" stroke-miterlimit="4" stroke-width="2.6667" d="M24 8l-16 16"></path>
      <path stroke-linejoin="round" stroke-linecap="round" stroke-miterlimit="4" stroke-width="2.6667" d="M8 8l16 16"></path>
    </symbol>
  </defs>
</svg>
